<svg version="1.1" id="Layer_1" xmlns="http://www.w3.org/2000/svg" xmlns:xlink="http://www.w3.org/1999/xlink" x="0px" y="0px"
	 width="100%" viewBox="0 0 1408 768" enable-background="new 0 0 1408 768" xml:space="preserve">
<path fill="none" opacity="1.000000" stroke="#000000" stroke-linecap="round" stroke-linejoin="round" stroke-width="14.000000"
	d="
M504.500000,598.000000 
	C504.460754,594.666687 505.276855,591.443115 504.626526,587.976257 
	C503.415527,581.520813 500.408936,576.916199 493.992554,575.025208 
	C487.719147,573.176453 483.163879,576.283264 478.985504,580.485596 
	C473.293671,586.210083 470.695038,593.571472 468.864685,601.028137 
	C465.020721,616.688538 463.650391,632.590149 467.556122,648.486206 
	C469.475739,656.298645 472.434509,663.552368 479.925751,668.121704 
	C482.290222,669.563904 484.760437,669.005127 487.000000,670.000000 
"/>
<path fill="none" opacity="1.000000" stroke="#000000" stroke-linecap="round" stroke-linejoin="round" stroke-width="3.000000"
	d="
M822.500000,435.000000 
	C820.333313,442.166656 818.041260,449.298492 816.037537,456.510437 
	C814.256897,462.919647 813.930176,461.958862 809.009583,460.953186 
	C794.149780,457.916168 779.292725,454.843567 764.511658,451.449371 
	C750.291077,448.183807 736.209839,444.306885 721.971863,441.125854 
	C718.053650,440.250458 714.320740,437.742249 710.000000,439.000000 
"/>
<path fill="none" opacity="1.000000" stroke="#000000" stroke-linecap="round" stroke-linejoin="round" stroke-width="4.000000"
	d="
M830.000000,437.000000 
	C827.333313,447.000000 824.636292,456.992065 822.016052,467.004211 
	C821.073792,470.604828 820.158936,471.856415 815.438538,470.766022 
	C798.817444,466.926636 782.124023,463.365173 765.491760,459.535767 
	C754.535339,457.013184 743.453735,455.025482 732.525818,452.392731 
	C728.849548,451.507080 725.011292,450.095795 721.474915,449.803406 
	C714.970459,449.265625 712.816284,444.855438 709.970032,440.519684 
	C707.896362,437.360840 708.363281,434.458344 709.382202,430.965637 
	C712.856689,419.055420 716.844849,407.156281 718.729370,394.958191 
	C720.817505,381.442291 727.078491,369.289978 729.472412,355.995026 
	C729.525330,355.701233 729.166687,355.333344 729.000000,355.000000 
"/>
<path fill="none" opacity="1.000000" stroke="#000000" stroke-linecap="round" stroke-linejoin="round" stroke-width="12.000000"
	d="
M684.500000,666.000000 
	C695.183167,663.867432 701.400146,656.075195 702.109680,645.007019 
	C702.469910,639.386841 702.550842,633.911316 700.983887,628.504700 
	C698.928101,621.411377 694.302063,616.719849 686.985840,615.591919 
	C679.511414,614.439636 674.077576,618.476929 670.589661,624.551514 
	C664.787964,634.655762 665.421692,654.612610 673.932617,661.582275 
	C676.999695,664.093872 680.159973,665.626038 684.000000,666.000000 
"/>
<path fill="none" opacity="1.000000" stroke="#000000" stroke-linecap="round" stroke-linejoin="round" stroke-width="13.000000"
	d="
M869.750000,532.500000 
	C870.006775,549.275818 854.123047,564.149109 836.021545,560.880676 
	C827.105469,559.270752 821.002014,553.403320 817.511169,544.995361 
	C816.703369,543.049561 816.035767,541.045532 815.242920,538.904358 
	C826.995483,535.724060 837.512634,530.857971 845.006042,521.004578 
	C849.063721,515.668884 850.994263,509.640991 850.459412,503.003265 
	C849.545532,491.659973 837.591614,486.060547 828.022278,492.532928 
	C818.719482,498.825012 814.553162,508.274994 813.643066,519.012146 
	C813.095947,525.466736 812.623474,532.144348 815.099670,538.273193 
	C809.517273,540.729919 803.909790,541.899658 798.000000,540.500000 
"/>
<path fill="none" opacity="1.000000" stroke="#000000" stroke-linecap="round" stroke-linejoin="round" stroke-width="3.000000"
	d="
M713.000000,443.500000 
	C722.932800,445.215332 732.633972,447.985901 742.463440,450.164917 
	C757.304626,453.454987 772.081970,457.030212 786.990662,460.046234 
	C797.052307,462.081726 807.025085,464.556244 817.527100,466.945709 
	C820.316711,456.757202 823.158386,446.378601 826.000000,436.000000 
"/>
<path fill="none" opacity="1.000000" stroke="#000000" stroke-linecap="round" stroke-linejoin="round" stroke-width="4.000000"
	d="
M754.500000,298.500000 
	C730.000000,298.833344 705.499023,299.111084 681.000488,299.528687 
	C671.830811,299.684967 662.666687,300.166656 653.500000,300.500000 
"/>
<path fill="none" opacity="1.000000" stroke="#000000" stroke-linecap="round" stroke-linejoin="round" stroke-width="5.000000"
	d="
M647.500000,204.500000 
	C647.276917,207.864441 643.672485,208.515167 642.245972,211.373215 
	C637.527771,220.826157 634.204834,230.411270 632.855835,240.981598 
	C630.650513,258.262024 633.702942,274.051331 643.489990,288.506805 
	C646.335205,292.709198 644.732178,297.485870 644.958923,302.002075 
	C645.393799,310.663147 644.554626,319.317993 645.815125,328.026764 
	C646.712524,334.226654 647.814392,340.365936 648.798096,346.532227 
	C650.781006,358.960999 658.186157,365.563171 669.494385,369.018433 
	C672.365173,369.895630 675.336487,370.679138 677.963318,372.069305 
	C682.868958,374.665375 687.374695,376.990448 688.534241,383.952667 
	C690.297852,394.541901 689.482361,404.669403 687.559692,415.011108 
	C684.998352,428.788025 682.202515,442.596619 684.500427,456.749939 
	C686.055969,466.330780 688.604736,475.566315 694.518005,483.486542 
	C701.112610,492.319244 710.524048,492.587708 717.464966,483.971802 
	C722.826782,477.316071 725.675476,469.599945 726.010498,461.000397 
	C726.121643,458.146179 727.534241,455.435394 727.000000,452.500000 
"/>
<path fill="none" opacity="1.000000" stroke="#000000" stroke-linecap="round" stroke-linejoin="round" stroke-width="4.000000"
	d="
M608.500000,347.500000 
	C606.570435,345.097137 602.918884,345.989746 600.920837,343.565216 
	C600.666504,343.256592 598.876831,342.987183 598.590088,344.024902 
	C598.330994,344.962738 596.433960,345.540710 597.950928,347.049316 
	C599.036560,348.128967 599.374573,350.060455 600.550110,350.932465 
	C605.905273,354.905029 609.903748,360.512085 616.447083,363.132202 
	C620.667603,364.822205 622.381836,369.563080 624.890808,373.077942 
	C632.412842,383.615753 642.247559,390.829834 654.525391,394.412933 
	C665.738831,397.685486 677.166687,398.196655 688.500000,394.500000 
"/>
<path fill="none" opacity="1.000000" stroke="#000000" stroke-linecap="round" stroke-linejoin="round" stroke-width="14.000000"
	d="
M925.000000,574.500000 
	C926.304810,576.839050 926.572876,579.368591 926.513733,582.000305 
	C926.311218,590.999512 926.007080,600.000488 926.033691,608.999878 
	C926.086853,627.000244 926.319458,645.000183 926.519531,662.999756 
	C926.541748,665.001404 926.833374,667.000000 927.000000,669.000000 
"/>
<path fill="none" opacity="1.000000" stroke="#000000" stroke-linecap="round" stroke-linejoin="round" stroke-width="12.000000"
	d="
M578.000000,507.500000 
	C590.619873,510.832581 599.318420,506.394165 605.389832,497.921051 
	C608.933594,492.975433 608.394653,484.323029 604.079773,480.412018 
	C600.153564,476.853241 591.060730,476.859863 586.454773,482.965881 
	C581.930908,488.963165 580.294983,495.922943 578.392334,502.970947 
	C575.284180,514.484863 573.548645,526.419067 568.911072,537.462646 
	C565.529480,545.515442 562.696777,554.079224 555.007080,559.510071 
	C549.942200,563.087097 542.024231,564.347595 536.982727,561.026184 
	C531.294800,557.278809 529.593567,553.823730 530.425842,548.987244 
	C531.557190,542.413208 538.294312,538.280090 542.999817,537.997192 
	C546.832947,537.766785 550.543091,538.477173 553.974915,540.054626 
	C557.422485,541.639343 560.666687,543.666687 564.000000,545.500000 
"/>
<path fill="none" opacity="1.000000" stroke="#000000" stroke-linecap="round" stroke-linejoin="round" stroke-width="5.000000"
	d="
M758.500000,202.500000 
	C758.127380,204.571320 758.977112,206.895462 760.110901,207.871155 
	C765.895386,212.849213 767.770020,219.769501 769.380127,226.528564 
	C773.995422,245.903442 773.496155,265.114105 764.905334,283.455658 
	C762.260010,289.103424 762.090210,294.340942 762.669983,300.530914 
	C763.611328,310.580963 763.649597,320.854645 762.477722,330.997437 
	C761.895935,336.032776 761.463379,341.095459 760.029907,346.008728 
	C759.226379,348.762909 758.522156,351.529144 757.000000,354.000000 
"/>
<path fill="none" opacity="1.000000" stroke="#000000" stroke-linecap="round" stroke-linejoin="round" stroke-width="3.000000"
	d="
M731.500000,345.500031 
	C723.166687,345.833374 714.835938,346.335693 706.499451,346.465240 
	C688.501221,346.744965 670.500000,346.833313 652.500000,346.999969 
"/>
<path fill="none" opacity="1.000000" stroke="#000000" stroke-linecap="round" stroke-linejoin="round" stroke-width="13.000000"
	d="
M579.500000,641.500000 
	C581.000000,641.333313 582.496155,641.091797 584.000732,641.014038 
	C588.517944,640.780518 593.065796,641.622620 597.066528,638.075012 
	C602.795227,632.995239 606.891174,627.156494 607.979248,619.497070 
	C608.924988,612.839478 603.030090,603.483032 595.985779,600.533936 
	C592.341797,599.008301 588.454346,598.191711 584.498840,598.027344 
	C579.855347,597.834290 577.139832,600.542419 577.025330,605.500610 
	C576.909912,610.497925 576.785156,615.511536 577.052307,620.497192 
	C577.419067,627.342346 577.782532,634.284119 578.104919,641.030823 
	C578.416077,647.543884 577.174988,654.635498 577.025879,661.500549 
	C576.957153,664.663940 577.166687,667.833313 577.250000,671.000000 
"/>
<path fill="none" opacity="1.000000" stroke="#000000" stroke-linecap="round" stroke-linejoin="round" stroke-width="13.000000"
	d="
M845.000000,593.000000 
	C844.666687,606.500000 844.083496,619.999817 844.073059,633.500061 
	C844.063416,645.999817 844.666626,658.500000 845.000000,671.000000 
"/>
<path fill="none" opacity="1.000000" stroke="#000000" stroke-linecap="round" stroke-linejoin="round" stroke-width="5.000000"
	d="
M738.500000,355.000000 
	C725.696228,352.557037 712.818542,353.944794 700.005188,354.601288 
	C685.994202,355.319122 671.998596,354.798035 657.999390,354.855286 
	C656.003662,354.863464 654.000000,354.569855 652.000000,355.000000 
"/>
<path fill="none" opacity="1.000000" stroke="#000000" stroke-linecap="round" stroke-linejoin="round" stroke-width="14.000000"
	d="
M764.500000,506.000000 
	C764.150513,515.842102 764.296509,525.675903 765.001587,535.499878 
	C765.157166,537.667358 765.460022,539.832214 765.478455,542.000183 
	C765.565613,552.260986 765.363525,562.485596 768.242981,572.573364 
	C768.828857,574.625977 767.454834,577.786011 767.500000,580.500000 
"/>
<path fill="none" opacity="1.000000" stroke="#000000" stroke-linecap="round" stroke-linejoin="round" stroke-width="14.000000"
	d="
M673.500000,516.500000 
	C672.500000,533.500000 671.453247,550.497498 670.533447,567.501831 
	C670.308716,571.656311 670.500000,575.833313 670.500000,580.000000 
"/>
<path fill="none" opacity="1.000000" stroke="#000000" stroke-linecap="round" stroke-linejoin="round" stroke-width="4.000000"
	d="
M624.500000,344.500000 
	C624.046570,341.635712 627.205566,341.110352 628.049744,339.020111 
	C628.853210,337.030823 631.007385,337.086029 632.461243,337.607941 
	C634.529236,338.350281 635.027100,340.569397 634.438416,342.481049 
	C633.136414,346.708679 632.004333,351.123749 629.828979,354.901520 
	C628.288391,357.576752 628.678406,359.227875 629.970520,361.516632 
	C640.482300,380.136597 663.476807,391.259277 687.500000,383.500000 
"/>
<path fill="none" opacity="1.000000" stroke="#000000" stroke-linecap="round" stroke-linejoin="round" stroke-width="12.000000"
	d="
M594.000000,641.000000 
	C598.137634,651.014526 601.947388,661.265930 608.568787,669.947571 
	C617.286377,681.377625 628.154480,689.314392 643.499512,688.490906 
	C649.956543,688.144348 655.621643,685.967590 660.000000,681.000000 
"/>
<path fill="none" opacity="1.000000" stroke="#000000" stroke-linecap="round" stroke-linejoin="round" stroke-width="13.000000"
	d="
M821.750000,591.500000 
	C822.565735,600.197388 821.131104,608.848694 820.714111,617.486206 
	C820.335632,625.325378 820.167358,633.161865 820.036865,641.000610 
	C819.971313,644.934631 819.355835,648.690247 816.427979,651.422852 
	C814.944702,652.807129 815.310730,654.236023 815.577332,655.483459 
	C816.548157,660.025330 817.833313,664.500000 819.000000,669.000000 
"/>
<path fill="none" opacity="1.000000" stroke="#000000" stroke-linecap="round" stroke-linejoin="round" stroke-width="13.000000"
	d="
M641.000000,607.500000 
	C639.578979,625.479858 638.987427,643.474670 639.989014,661.500610 
	C640.072083,662.995972 640.000000,664.500000 640.000000,666.000000 
"/>
<path fill="none" opacity="1.000000" stroke="#000000" stroke-linecap="round" stroke-linejoin="round" stroke-width="14.000000"
	d="
M721.000000,527.500000 
	C722.053040,532.638062 721.576111,537.844971 721.437012,542.998291 
	C721.053894,557.191040 722.237915,571.331665 722.500000,585.500000 
"/>
<path fill="none" opacity="1.000000" stroke="#000000" stroke-linecap="round" stroke-linejoin="round" stroke-width="4.000000"
	d="
M756.500000,224.000000 
	C753.322388,221.422150 753.010803,217.349686 751.671875,213.932648 
	C750.505493,210.955765 749.029175,208.185684 747.416504,205.551132 
	C744.288818,200.441391 739.354126,202.958405 734.122253,203.164062 
	C737.100769,216.520218 734.672729,229.501984 732.500000,242.500000 
"/>
<path fill="none" opacity="1.000000" stroke="#000000" stroke-linecap="round" stroke-linejoin="round" stroke-width="4.000000"
	d="
M733.500000,229.000000 
	C732.406860,228.077026 731.705078,227.076904 731.437805,225.510605 
	C730.167114,218.063278 726.230408,211.671234 723.023804,204.988571 
	C722.061768,202.983643 720.698608,202.415970 718.499268,202.447678 
	C700.500610,202.707184 682.500122,202.846100 664.499878,202.983063 
	C662.363342,202.999329 660.922913,203.525421 659.385254,205.406189 
	C656.152344,209.360565 654.463440,214.028824 652.685486,218.572586 
	C651.864258,220.671127 651.026184,222.453690 649.500000,224.000000 
"/>
<path fill="none" opacity="1.000000" stroke="#000000" stroke-linecap="round" stroke-linejoin="round" stroke-width="12.000000"
	d="
M761.000000,625.000000 
	C757.610474,619.511658 755.762024,612.991272 749.037476,609.918030 
	C741.049194,606.267090 732.128601,609.449585 729.495605,616.998474 
	C729.026733,618.342651 728.899292,620.267395 727.937866,620.906494 
	C718.946533,626.883118 720.698914,636.154785 721.251038,644.483337 
	C721.650024,650.501648 723.588318,656.641724 727.978699,661.519165 
	C735.814026,670.223816 748.756714,669.456543 754.936768,659.460938 
	C760.423096,650.587280 762.493103,640.915710 760.059753,630.486084 
	C759.508362,628.122742 759.282898,625.738525 762.968506,624.866821 
	C766.230286,624.095459 768.869934,621.949158 771.099243,619.077026 
	C774.365417,614.869019 778.777466,612.249329 784.500000,613.000000 
"/>
<path fill="none" opacity="1.000000" stroke="#000000" stroke-linecap="round" stroke-linejoin="round" stroke-width="13.000000"
	d="
M866.000000,644.500000 
	C865.763184,646.681519 865.840698,648.786682 865.161743,651.048523 
	C863.217712,657.524658 870.737183,668.476501 877.504944,669.466003 
	C887.386841,670.910706 893.687317,663.781555 894.622131,656.515686 
	C895.902771,646.561279 892.559265,638.348511 886.450012,631.041748 
	C881.028809,624.557861 875.225220,618.327759 871.100525,610.943848 
	C867.818909,605.069153 866.407471,598.651184 869.482300,591.991821 
	C872.609680,585.218750 879.685181,581.512939 886.000000,583.500061 
	C892.475159,585.537537 896.104370,592.155518 894.500000,599.000000 
"/>
<path fill="none" opacity="1.000000" stroke="#000000" stroke-linecap="round" stroke-linejoin="round" stroke-width="14.000000"
	d="
M787.500000,617.500000 
	C784.369385,622.384033 783.355225,627.671631 783.393616,633.500671 
	C783.463745,644.162781 784.097595,654.844788 783.043091,665.504272 
	C782.897705,666.973389 783.333374,668.500000 783.500000,670.000000 
"/>
<path fill="none" opacity="1.000000" stroke="#000000" stroke-linecap="round" stroke-linejoin="round" stroke-width="3.000000"
	d="
M683.500000,239.500000 
	C682.387756,253.120102 682.598145,266.650055 685.969360,280.007721 
	C686.839722,283.456329 687.333313,287.000000 687.999939,290.500000 
"/>
<path fill="none" opacity="1.000000" stroke="#000000" stroke-linecap="round" stroke-linejoin="round" stroke-width="3.000000"
	d="
M759.000000,423.000000 
	C758.333313,422.333344 757.583923,421.729797 757.017334,420.986786 
	C755.858276,419.466949 754.183960,418.132904 752.573853,419.120392 
	C750.608582,420.325775 750.174255,422.482300 750.925842,425.021942 
	C752.304138,429.679504 755.036987,433.294708 758.370361,436.893616 
	C762.552795,434.299377 765.912842,431.207855 768.379578,427.421539 
	C769.477478,425.736237 771.526733,423.280579 768.976624,421.026489 
	C766.769470,419.075531 764.572815,419.880951 762.491089,421.488464 
	C761.542297,422.221130 761.109741,423.747894 759.500000,423.500000 
"/>
<path fill="none" opacity="1.000000" stroke="#000000" stroke-linecap="round" stroke-linejoin="round" stroke-width="13.000000"
	d="
M627.500000,523.000000 
	C627.652466,528.709534 625.571045,534.027161 624.396912,539.477783 
	C622.788086,546.946228 621.996582,554.443542 622.606018,561.991455 
	C622.967346,566.466797 624.282104,570.846191 629.491516,572.526245 
	C635.242065,574.380859 640.700623,572.661926 645.021667,567.518188 
	C646.169373,566.152100 647.612915,565.025696 647.500000,563.000000 
"/>
<path fill="none" opacity="1.000000" stroke="#000000" stroke-linecap="round" stroke-linejoin="round" stroke-width="12.000000"
	d="
M540.500000,594.000000 
	C533.053955,599.878540 533.107605,609.041809 530.571716,617.022766 
	C528.862122,622.403198 527.141724,627.937988 526.641785,633.512695 
	C525.549072,645.699036 520.657837,656.990051 519.024048,669.003296 
	C518.846008,670.312378 519.000000,671.666687 519.000000,673.000000 
"/>
<path fill="none" opacity="1.000000" stroke="#000000" stroke-linecap="round" stroke-linejoin="round" stroke-width="13.000000"
	d="
M540.750000,585.500000 
	C540.833313,587.333313 541.436401,589.356873 540.854614,590.946838 
	C540.265686,592.556519 540.790771,593.766785 541.558105,594.433044 
	C546.030273,598.316406 547.044861,603.654968 547.973755,609.004578 
	C549.445557,617.481201 551.807678,625.828674 551.986023,634.500305 
	C552.221313,645.937500 556.997803,656.593079 557.642456,667.991943 
	C557.802612,670.823486 557.712524,673.673767 558.000000,676.500000 
"/>
<path fill="none" opacity="1.000000" stroke="#000000" stroke-linecap="round" stroke-linejoin="round" stroke-width="13.000000"
	d="
M814.500000,652.500000 
	C810.217651,650.548218 807.505981,647.124817 805.490601,643.004578 
	C803.198181,638.317932 800.634094,633.753418 798.554993,628.976074 
	C796.395752,624.014587 793.923767,619.725586 788.564941,617.353333 
	C785.957458,616.198975 784.299316,613.190552 785.082703,610.020447 
	C785.676575,607.617126 785.181458,605.333862 785.250000,603.000000 
"/>
<path fill="none" opacity="1.000000" stroke="#000000" stroke-linecap="round" stroke-linejoin="round" stroke-width="3.000000"
	d="
M512.500000,252.500000 
	C514.324402,252.234970 516.091614,252.712158 518.033569,252.107864 
	C523.501709,250.406219 524.238159,251.510193 528.162476,256.368774 
	C530.920044,259.782806 534.682800,262.394745 537.608582,265.909607 
	C544.093323,273.699829 551.309448,280.876434 557.947571,288.545410 
	C562.063599,293.300720 565.611877,298.543518 569.530701,303.475616 
	C570.844971,305.129791 570.787476,306.337738 569.543152,308.031677 
	C566.336914,312.396301 564.619202,313.554199 555.265747,316.575653 
	C543.631653,304.019104 531.597351,291.691315 520.497498,278.502075 
	C517.680603,275.154938 514.932190,271.742249 511.970428,268.527222 
	C509.341492,265.673492 508.390656,262.193298 510.136200,259.076263 
	C512.822327,254.279770 511.634399,250.887039 508.034851,247.463364 
	C506.331787,245.843521 505.000000,243.833328 503.500000,242.000000 
"/>
<path fill="none" opacity="1.000000" stroke="#000000" stroke-linecap="round" stroke-linejoin="round" stroke-width="3.000000"
	d="
M658.499939,252.500000 
	C658.833313,256.666656 659.026672,260.850281 659.528625,264.996521 
	C660.616821,273.984619 663.834900,282.422668 666.500000,291.000000 
"/>
<path fill="none" opacity="1.000000" stroke="#000000" stroke-linecap="round" stroke-linejoin="round" stroke-width="3.000000"
	d="
M894.500000,214.500000 
	C888.303101,218.095169 884.632446,224.299103 879.600769,229.105499 
	C874.155884,234.306442 869.597839,240.424194 864.458130,245.961136 
	C861.943298,248.670288 860.882385,252.304382 857.661011,254.715149 
	C855.641785,256.226318 856.329407,260.030975 857.619995,262.435577 
	C858.599243,264.260040 858.790344,266.182312 859.354126,267.625916 
	C861.395630,268.303558 863.201904,268.889709 864.999084,269.502655 
	C868.255981,270.613403 871.122620,270.066833 873.498047,267.498199 
	C885.199341,254.845337 897.401245,242.642563 908.028503,229.022263 
	C908.811096,228.019272 910.068726,227.402267 910.987183,226.487137 
	C913.807739,223.677155 914.124084,218.944916 911.435547,216.060059 
	C910.484009,215.039017 909.702942,213.874329 908.584167,212.903046 
	C902.229309,207.385727 899.955750,207.451263 894.500000,214.000000 
"/>
<path fill="none" opacity="1.000000" stroke="#000000" stroke-linecap="round" stroke-linejoin="round" stroke-width="13.000000"
	d="
M806.500000,568.750000 
	C796.737732,568.759521 787.605103,572.464172 778.028748,573.719238 
	C774.846680,574.136353 772.000000,574.284302 769.000000,573.500000 
"/>
<path fill="none" opacity="1.000000" stroke="#000000" stroke-linecap="round" stroke-linejoin="round" stroke-width="13.000000"
	d="
M565.500000,548.500000 
	C570.080139,550.828552 573.176941,554.838806 576.438904,558.553650 
	C579.953613,562.556335 584.227539,565.582336 588.568176,568.394775 
	C593.520569,571.603516 599.301147,571.473938 605.000000,570.500000 
"/>
<path fill="none" opacity="1.000000" stroke="#000000" stroke-linecap="round" stroke-linejoin="round" stroke-width="5.000000"
	d="
M760.500000,291.000000 
	C733.833313,291.000000 707.165527,290.853699 680.500549,291.068268 
	C668.997253,291.160828 657.500000,292.000000 646.000000,292.500000 
"/>
<path fill="none" opacity="1.000000" stroke="#000000" stroke-linecap="round" stroke-linejoin="round" stroke-width="3.000000"
	d="
M821.000000,371.500000 
	C823.960327,374.775726 827.853455,375.718384 831.995728,375.437012 
	C835.200439,375.219299 837.615356,375.935974 838.643372,378.311188 
	C835.662598,389.067078 832.831299,399.283539 830.000000,409.500000 
"/>
<path fill="none" opacity="1.000000" stroke="#000000" stroke-linecap="round" stroke-linejoin="round" stroke-width="3.000000"
	d="
M757.500000,255.500000 
	C756.360107,263.366241 756.363708,271.410950 753.534668,279.012909 
	C752.166992,282.688110 751.166626,286.500000 749.999939,290.250000 
"/>
<path fill="none" opacity="1.000000" stroke="#000000" stroke-linecap="round" stroke-linejoin="round" stroke-width="3.000000"
	d="
M727.500000,256.500000 
	C728.512634,266.048981 726.984070,275.321686 724.521301,284.505707 
	C724.040222,286.299408 723.833252,288.166656 723.499939,290.000000 
"/>
<path fill="none" opacity="1.000000" stroke="#000000" stroke-linecap="round" stroke-linejoin="round" stroke-width="3.000000"
	d="
M562.000000,184.500000 
	C562.168213,183.666977 561.565918,182.673584 562.500916,182.001251 
	C566.566895,179.077667 568.539001,174.484482 570.794312,170.386810 
	C572.634094,167.044144 575.163391,166.869843 577.437378,167.676544 
	C580.431946,168.738892 583.738098,168.649887 586.557556,170.407684 
	C587.437866,170.956528 589.107544,170.793045 590.234192,168.999054 
	C588.473145,165.603928 586.300720,162.075775 583.467041,159.030701 
	C581.296326,156.698090 581.379150,154.559662 582.964233,151.978043 
	C585.029968,148.613632 586.838989,145.091644 589.269043,140.718735 
	C582.510071,139.805267 577.565125,143.858246 571.633057,144.542450 
	C567.525635,141.161667 565.061829,135.725342 559.285400,132.422440 
	C557.884094,137.320450 558.499023,141.982056 558.599060,146.497803 
	C558.666321,149.532578 557.929199,151.352264 555.024231,152.558350 
	C551.334839,154.090134 547.842957,156.078873 544.806458,158.706589 
	C546.558044,161.717300 549.619507,161.625443 552.032471,162.398743 
	C559.885681,164.915527 560.363525,165.281372 560.493835,173.500092 
	C560.532532,175.940201 560.243835,178.435852 562.000000,180.500000 
"/>
<path fill="none" opacity="1.000000" stroke="#000000" stroke-linecap="round" stroke-linejoin="round" stroke-width="11.000000"
	d="
M548.500000,483.500000 
	C548.247742,486.652618 549.058105,489.408142 550.964600,492.025787 
	C557.468628,500.956329 565.787231,506.804138 577.000000,508.000000 
"/>
<path fill="none" opacity="1.000000" stroke="#000000" stroke-linecap="round" stroke-linejoin="round" stroke-width="3.000000"
	d="
M695.000000,204.000000 
	C697.190308,214.055435 696.806335,224.321884 697.500000,234.500000 
"/>
<path fill="none" opacity="1.000000" stroke="#000000" stroke-linecap="round" stroke-linejoin="round" stroke-width="4.000000"
	d="
M840.000000,381.000000 
	C844.280273,384.670471 844.480225,389.032166 842.565186,394.024994 
	C841.532349,396.717896 841.460144,399.778503 840.432739,402.474365 
	C838.801453,406.755157 838.920532,410.322601 841.341797,414.589752 
	C846.248901,423.237366 840.880310,433.941864 831.500000,435.499969 
	C825.887634,436.432251 822.791016,434.816650 819.922241,429.351868 
	C820.771851,427.691650 822.519592,426.998596 824.000000,426.000000 
"/>
<path fill="none" opacity="1.000000" stroke="#000000" stroke-linecap="round" stroke-linejoin="round" stroke-width="4.000000"
	d="
M718.000000,327.500000 
	C716.141602,331.094086 713.836121,334.327362 709.989807,335.976227 
	C704.311340,338.410522 698.377930,336.714478 694.159546,330.884552 
	C693.204346,329.564362 692.533813,329.665894 691.500000,329.500000 
"/>
<path fill="none" opacity="1.000000" stroke="#000000" stroke-linecap="round" stroke-linejoin="round" stroke-width="11.000000"
	d="
M729.000000,620.500000 
	C732.333313,623.333313 735.327332,626.790710 739.088928,628.836487 
	C743.448364,631.207397 748.470825,631.937378 753.518372,630.049133 
	C755.235962,629.406494 757.166687,629.333313 759.000000,629.000000 
"/>
<path fill="none" opacity="1.000000" stroke="#000000" stroke-linecap="round" stroke-linejoin="round" stroke-width="4.000000"
	d="
M624.500000,342.500000 
	C622.833374,339.000000 621.007141,335.561432 619.617798,331.954620 
	C619.291260,331.106781 618.853394,330.189453 618.410095,329.563690 
	C617.427917,328.177124 615.760559,326.743683 614.055359,327.609070 
	C612.324097,328.487671 611.903137,330.809814 612.609009,332.453186 
	C613.438293,334.383911 613.699768,336.087891 613.000000,338.000000 
"/>
<path fill="none" opacity="1.000000" stroke="#000000" stroke-linecap="round" stroke-linejoin="round" stroke-width="13.000000"
	d="
M701.500000,514.000000 
	C696.166687,514.000000 690.827576,514.155762 685.501465,513.960510 
	C678.834778,513.716248 672.294128,516.332764 665.416382,513.720032 
	C661.719849,512.315796 657.166687,513.166626 653.000000,513.000000 
"/>
<path fill="none" opacity="1.000000" stroke="#000000" stroke-linecap="round" stroke-linejoin="round" stroke-width="3.000000"
	d="
M753.500000,382.500000 
	C751.666626,384.166626 749.833252,385.833221 747.911316,387.580353 
	C748.290771,389.878174 750.111938,391.928406 749.404724,394.463867 
	C746.422058,395.025726 745.580994,391.397217 742.971924,390.855164 
	C740.592285,391.467712 739.456116,394.115265 736.505615,394.577759 
	C736.263550,390.367889 738.601440,385.032776 731.896362,382.886627 
	C737.780334,382.843323 740.985352,380.222198 741.774353,374.479279 
	C744.860168,375.982117 744.187439,379.618378 746.100220,380.843506 
	C747.788025,381.924530 750.333313,381.666656 752.500000,382.000000 
"/>
<path fill="none" opacity="1.000000" stroke="#000000" stroke-linecap="round" stroke-linejoin="round" stroke-width="13.000000"
	d="
M504.000000,649.500000 
	C502.423065,653.806702 502.156464,658.592285 499.478577,662.485291 
	C496.938629,666.177795 493.855530,669.184631 489.000824,669.512329 
	C487.823975,669.591736 486.800873,669.967529 487.000000,671.500000 
"/>
<path fill="none" opacity="1.000000" stroke="#000000" stroke-linecap="round" stroke-linejoin="round" stroke-width="3.000000"
	d="
M841.000000,385.500000 
	C838.710327,394.099823 835.041504,402.381378 835.000000,411.500000 
"/>
<path fill="none" opacity="1.000000" stroke="#000000" stroke-linecap="round" stroke-linejoin="round" stroke-width="3.000000"
	d="
M649.500000,267.500000 
	C651.163574,274.723236 653.468933,281.742279 656.575256,288.465240 
	C657.083984,289.566284 656.754944,290.513062 657.000000,291.500000 
"/>
<path fill="none" opacity="1.000000" stroke="#000000" stroke-linecap="round" stroke-linejoin="round" stroke-width="12.000000"
	d="
M896.500000,229.500000 
	C894.864319,229.561981 893.805603,230.062347 892.346619,231.322418 
	C887.199524,235.767715 883.427979,241.411835 878.553406,246.056061 
	C877.158386,247.385193 876.136414,249.292038 876.500000,251.500000 
"/>
<path fill="none" opacity="1.000000" stroke="#000000" stroke-linecap="round" stroke-linejoin="round" stroke-width="13.000000"
	d="
M945.000000,566.000000 
	C938.486084,568.042542 931.418152,568.677734 925.991821,573.490784 
	C925.722473,573.729614 925.284851,574.036438 925.007080,573.970154 
	C918.294739,572.369324 912.413208,576.385254 906.000000,576.750000 
"/>
<path fill="none" opacity="1.000000" stroke="#000000" stroke-linecap="round" stroke-linejoin="round" stroke-width="13.000000"
	d="
M747.500000,522.750000 
	C732.888245,524.644653 718.285095,526.639526 703.500000,526.500000 
"/>
<path fill="none" opacity="1.000000" stroke="#000000" stroke-linecap="round" stroke-linejoin="round" stroke-width="13.000000"
	d="
M662.000000,605.500000 
	C655.262817,607.313904 648.129028,603.667664 641.483276,606.966248 
	C641.282227,607.066040 640.833984,606.665344 640.499878,606.500244 
	C633.174866,602.881714 625.274963,603.669678 617.500000,603.500000 
"/>
<path fill="none" opacity="1.000000" stroke="#000000" stroke-linecap="round" stroke-linejoin="round" stroke-width="5.000000"
	d="
M737.000000,319.500000 
	C735.601807,317.262848 735.870911,314.232605 732.548767,312.880219 
	C727.756897,310.929535 725.034607,312.013000 721.500000,318.500000 
"/>
<path fill="none" opacity="1.000000" stroke="#000000" stroke-linecap="round" stroke-linejoin="round" stroke-width="3.000000"
	d="
M845.500000,216.500000 
	C843.265991,214.598282 843.734009,219.901779 841.053955,216.627289 
	C842.587524,223.184540 843.793762,228.342270 845.000061,233.499985 
"/>
<path fill="none" opacity="1.000000" stroke="#000000" stroke-linecap="round" stroke-linejoin="round" stroke-width="3.000000"
	d="
M747.500000,270.500000 
	C747.506042,277.274750 743.670044,283.261383 743.500000,290.000000 
"/>
<path fill="none" opacity="1.000000" stroke="#000000" stroke-linecap="round" stroke-linejoin="round" stroke-width="5.000000"
	d="
M688.500000,318.500000 
	C687.666687,317.500000 686.793335,316.530273 686.008057,315.493896 
	C684.207336,313.117340 681.309021,312.017822 679.098816,313.186829 
	C676.151245,314.745819 672.577087,316.849274 674.000000,321.500000 
"/>
<path fill="none" opacity="1.000000" stroke="#000000" stroke-linecap="round" stroke-linejoin="round" stroke-width="4.000000"
	d="
M705.500000,458.500000 
	C700.398071,460.477631 698.862732,463.241272 700.500061,467.499969 
	C701.945190,471.258911 705.207825,472.318756 709.031616,471.099030 
	C712.342773,470.042725 712.995972,467.307770 712.817444,465.014221 
	C712.551331,461.596069 710.410217,458.923096 706.500000,458.500000 
"/>
<path fill="none" opacity="1.000000" stroke="#000000" stroke-linecap="round" stroke-linejoin="round" stroke-width="4.000000"
	d="
M647.000000,207.000000 
	C647.166687,207.666672 647.557983,208.366150 647.466003,208.995041 
	C646.240295,217.384415 649.775818,225.271179 650.000000,233.500000 
"/>
<path fill="none" opacity="1.000000" stroke="#000000" stroke-linecap="round" stroke-linejoin="round" stroke-width="3.000000"
	d="
M587.500000,343.500000 
	C585.825134,351.147522 589.289978,357.036743 594.000000,362.500000 
"/>
<path fill="none" opacity="1.000000" stroke="#000000" stroke-linecap="round" stroke-linejoin="round" stroke-width="3.000000"
	d="
M619.000000,166.000015 
	C618.500000,166.333359 617.605591,166.619461 617.559204,167.007111 
	C616.879028,172.686172 613.282654,176.318878 609.000000,179.500000 
"/>
<path fill="none" opacity="1.000000" stroke="#000000" stroke-linecap="round" stroke-linejoin="round" stroke-width="4.000000"
	d="
M760.000000,208.500000 
	C759.500000,209.333328 758.501038,210.215073 758.576538,210.992569 
	C759.414673,219.631897 755.536743,227.872162 756.500000,236.500000 
"/>
<path fill="none" opacity="1.000000" stroke="#000000" stroke-linecap="round" stroke-linejoin="round" stroke-width="5.000000"
	d="
M895.000000,214.500000 
	C900.516724,217.983276 904.781555,222.718460 908.500000,228.000000 
"/>
<path fill="none" opacity="1.000000" stroke="#000000" stroke-linecap="round" stroke-linejoin="round" stroke-width="3.000000"
	d="
M619.000000,159.500000 
	C617.833252,166.364624 621.813293,171.011261 626.044861,175.457306 
	C627.141663,176.609665 628.789734,177.237427 630.427185,178.257217 
	C623.599304,182.800049 619.893005,189.147842 620.000000,197.500000 
"/>
<path fill="none" opacity="1.000000" stroke="#000000" stroke-linecap="round" stroke-linejoin="round" stroke-width="3.000000"
	d="
M796.000000,400.500000 
	C797.596619,407.376526 801.385437,408.165863 808.000000,403.000000 
"/>
<path fill="none" opacity="1.000000" stroke="#000000" stroke-linecap="round" stroke-linejoin="round" stroke-width="3.000000"
	d="
M777.000000,405.000000 
	C777.443970,403.809326 780.107483,403.657654 778.526123,401.481018 
	C777.429626,399.971741 776.378296,400.667206 774.982971,400.896484 
	C772.700073,401.271545 770.447021,402.925201 768.000000,401.500000 
"/>
<path fill="none" opacity="1.000000" stroke="#000000" stroke-linecap="round" stroke-linejoin="round" stroke-width="3.000000"
	d="
M566.000000,300.500000 
	C562.294373,305.524628 557.135376,308.979523 552.500000,313.000000 
"/>
<path fill="none" opacity="1.000000" stroke="#000000" stroke-linecap="round" stroke-linejoin="round" stroke-width="3.000000"
	d="
M605.500000,179.000000 
	C611.419617,180.142166 615.713623,183.269897 618.076233,188.968399 
	C618.346008,189.619049 618.192627,190.938858 619.500000,191.000000 
"/>
<path fill="none" opacity="1.000000" stroke="#000000" stroke-linecap="round" stroke-linejoin="round" stroke-width="3.000000"
	d="
M785.500000,427.500000 
	C784.982361,431.138367 784.485962,434.706726 780.526855,436.557465 
	C779.059937,437.243164 778.304626,438.836212 778.000000,440.500000 
"/>
<path fill="none" opacity="1.000000" stroke="#000000" stroke-linecap="round" stroke-linejoin="round" stroke-width="3.000000"
	d="
M580.000000,353.000000 
	C580.777222,358.200348 582.267090,362.973083 587.500000,365.500000 
"/>
<path fill="none" opacity="1.000000" stroke="#000000" stroke-linecap="round" stroke-linejoin="round" stroke-width="5.000000"
	d="
M528.000000,257.500000 
	C523.130188,260.918823 518.692200,264.805481 515.000000,269.500000 
"/>
<path fill="none" opacity="1.000000" stroke="#000000" stroke-linecap="round" stroke-linejoin="round" stroke-width="2.000000"
	d="
M733.500000,411.500000 
	C734.028381,414.174774 734.653137,416.576538 731.592773,418.637756 
	C729.718811,419.899933 729.662781,422.334106 732.500000,423.500000 
"/>
<path fill="none" opacity="1.000000" stroke="#000000" stroke-linecap="round" stroke-linejoin="round" stroke-width="3.000000"
	d="
M795.750000,432.500000 
	C793.445251,436.931000 794.902344,440.625977 798.000000,444.000000 
"/>
<path fill="none" opacity="1.000000" stroke="#000000" stroke-linecap="round" stroke-linejoin="round" stroke-width="6.000000"
	d="
M561.500000,296.000000 
	C557.443298,299.952850 553.693726,304.239563 549.000000,307.500000 
"/>
<path fill="none" opacity="1.000000" stroke="#000000" stroke-linecap="round" stroke-linejoin="round" stroke-width="5.000000"
	d="
M862.500000,251.999969 
	C866.666687,255.833313 870.833374,259.666626 875.000000,263.499969 
"/>
<path fill="none" opacity="1.000000" stroke="#000000" stroke-linecap="round" stroke-linejoin="round" stroke-width="2.000000"
	d="
M820.500000,208.000000 
	C816.542175,206.821121 812.483887,208.054016 808.500000,207.500000 
"/>
<path fill="none" opacity="1.000000" stroke="#000000" stroke-linecap="round" stroke-linejoin="round" stroke-width="3.000000"
	d="
M807.500061,433.500000 
	C806.500061,437.500000 805.500061,441.500000 804.500061,445.500000 
"/>
<path fill="none" opacity="1.000000" stroke="#000000" stroke-linecap="round" stroke-linejoin="round" stroke-width="4.000000"
	d="
M616.000000,343.500000 
	C615.427795,338.244720 609.776733,337.372192 607.351318,333.595459 
	C606.315674,331.982758 603.832031,334.054749 603.422546,336.486969 
	C602.876099,339.732239 606.700256,341.727386 605.500000,345.000000 
"/>
<path fill="none" opacity="1.000000" stroke="#000000" stroke-linecap="round" stroke-linejoin="round" stroke-width="4.000000"
	d="
M834.000000,411.000000 
	C833.000000,410.666656 832.022522,410.164215 830.996338,410.027710 
	C824.784851,409.201538 823.511719,410.845032 825.500000,417.000000 
"/>
<path fill="none" opacity="1.000000" stroke="#000000" stroke-linecap="round" stroke-linejoin="round" stroke-width="3.000000"
	d="
M775.500000,392.500000 
	C774.320557,389.371704 772.016968,389.668762 769.497192,390.491394 
	C767.546875,391.128082 765.609497,392.147400 763.487671,390.993317 
	C763.826843,389.894806 764.105042,388.750702 765.500000,388.500000 
"/>
<path fill="none" opacity="1.000000" stroke="#000000" stroke-linecap="round" stroke-linejoin="round" stroke-width="4.000000"
	d="
M834.500000,419.500000 
	C832.203735,420.944336 830.168091,419.122131 828.587830,418.325684 
	C825.248291,416.642639 822.260864,417.815186 821.256287,420.112091 
	C820.064514,422.837189 822.772339,424.848541 825.484131,426.036194 
	C827.430969,426.888794 829.364075,427.543579 831.500000,427.500000 
"/>
<path fill="none" opacity="1.000000" stroke="#000000" stroke-linecap="round" stroke-linejoin="round" stroke-width="4.000000"
	d="
M739.500000,362.500000 
	C739.397339,359.615387 736.644836,356.462219 740.485474,353.977509 
	C742.072754,352.950623 742.836853,352.370422 744.635986,354.378174 
	C748.289001,358.454834 750.980652,358.492523 755.500000,356.000000 
"/>
<path fill="none" opacity="1.000000" stroke="#000000" stroke-linecap="round" stroke-linejoin="round" stroke-width="3.000000"
	d="
M802.000000,376.000000 
	C799.926025,373.193298 799.804626,370.385590 802.540161,368.046997 
	C804.287476,366.553192 806.281738,366.064575 808.042725,368.468719 
	C808.874573,369.604340 809.772705,370.914154 811.498718,371.020508 
	C812.173157,371.062042 812.833313,371.333313 813.500000,371.500000 
"/>
<path fill="none" opacity="1.000000" stroke="#000000" stroke-linecap="round" stroke-linejoin="round" stroke-width="3.000000"
	d="
M752.000000,358.500000 
	C750.006531,361.301666 751.427063,363.889984 752.500000,366.500000 
"/>
<path fill="none" opacity="1.000000" stroke="#000000" stroke-linecap="round" stroke-linejoin="round" stroke-width="2.000000"
	d="
M830.000000,197.000000 
	C828.666687,199.666672 827.333313,202.333344 826.000000,205.000000 
"/>
<path fill="none" opacity="1.000000" stroke="#000000" stroke-linecap="round" stroke-linejoin="round" stroke-width="4.000000"
	d="
M793.500000,360.500000 
	C792.948486,366.025848 798.191528,366.438843 801.000000,369.000000 
"/>
<path fill="none" opacity="1.000000" stroke="#000000" stroke-linecap="round" stroke-linejoin="round" stroke-width="8.000000"
	d="
M756.250000,354.500000 
	C756.977173,358.248077 760.845215,358.734467 762.871155,360.910126 
	C765.666687,361.638763 768.333313,355.697235 771.000000,361.000000 
"/>
<path fill="none" opacity="1.000000" stroke="#000000" stroke-linecap="round" stroke-linejoin="round" stroke-width="3.000000"
	d="
M788.500000,366.500000 
	C787.250671,369.059418 788.620728,371.244659 789.500000,373.500000 
"/>
<path fill="none" opacity="1.000000" stroke="#000000" stroke-linecap="round" stroke-linejoin="round" stroke-width="3.000000"
	d="
M826.500000,374.500000 
	C827.147766,371.191528 828.680420,368.323669 832.467285,369.149933 
	C834.965271,369.694977 836.534790,371.982605 835.500000,375.000000 
"/>
<path fill="none" opacity="1.000000" stroke="#000000" stroke-linecap="round" stroke-linejoin="round" stroke-width="3.000000"
	d="
M776.000000,364.500000 
	C776.175598,366.774078 773.634094,370.180237 778.500000,370.500000 
"/>
<path fill="none" opacity="1.000000" stroke="#000000" stroke-linecap="round" stroke-linejoin="round" stroke-width="3.000000"
	d="
M818.500000,369.500000 
	C813.033508,370.689758 812.289734,371.625946 813.561096,376.484009 
	C813.904480,377.795929 814.646484,378.739929 812.500000,378.500000 
"/>
<path fill="none" opacity="1.000000" stroke="#000000" stroke-linecap="round" stroke-linejoin="round" stroke-width="3.000000"
	d="
M785.000000,436.500000 
	C786.862244,438.159454 785.316772,440.670807 786.500000,442.500000 
"/>
<path fill="none" opacity="1.000000" stroke="#000000" stroke-linecap="round" stroke-linejoin="round" stroke-width="3.000000"
	d="
M781.000000,361.500000 
	C778.145020,361.298950 775.571655,365.884460 772.500000,362.000000 
"/>
<path fill="none" opacity="1.000000" stroke="#000000" stroke-linecap="round" stroke-linejoin="round" stroke-width="3.000000"
	d="
M811.000000,433.500000 
	C808.158081,433.048798 805.484009,431.646301 802.500000,432.000000 
"/>
<path fill="none" opacity="1.000000" stroke="#000000" stroke-linecap="round" stroke-linejoin="round" stroke-width="2.000000"
	d="
M732.500000,419.000000 
	C733.708618,421.026886 735.707275,420.420105 737.500000,420.500000 
"/>
<path fill="none" opacity="1.000000" stroke="#000000" stroke-linecap="round" stroke-linejoin="round" stroke-width="4.000000"
	d="
M793.000000,364.000000 
	C790.333313,365.022491 787.666687,367.329773 785.000000,364.000000 
"/>
<path fill="none" opacity="1.000000" stroke="#000000" stroke-linecap="round" stroke-linejoin="round" stroke-width="3.000000"
	d="
M799.500000,389.000000 
	C791.781616,392.695160 789.321594,396.746918 790.999939,403.000031 
	C792.652893,409.158478 798.124268,413.156494 803.985168,411.929108 
	C809.565063,410.760590 814.804932,406.552704 814.005554,398.999420 
	C813.411072,393.382599 808.192810,389.012878 802.000000,389.000183 
	C801.333313,388.998810 800.666687,389.000000 800.000000,389.000000 
"/>
</svg>