<svg version="1.1" id="Layer_1" xmlns="http://www.w3.org/2000/svg" xmlns:xlink="http://www.w3.org/1999/xlink" x="0px" y="0px"
	 width="100%" viewBox="0 0 1024 544" enable-background="new 0 0 1024 544" xml:space="preserve">
<path fill="#000000" opacity="1.000000" stroke="none" 
	d="
M439.512268,240.463058 
	C440.342743,240.178192 440.923248,240.162979 441.285431,239.874054 
	C446.504547,235.710236 450.930450,235.184570 454.071991,242.304199 
	C454.658997,243.634583 456.223602,243.511093 457.647400,243.297104 
	C462.382507,242.585526 463.607819,245.547287 463.209106,249.340347 
	C462.935944,251.939316 462.023895,254.530396 461.038208,256.980469 
	C459.759094,260.159790 460.427002,262.681091 462.515289,265.273865 
	C469.666779,274.153076 478.802338,278.802734 490.253479,278.544098 
	C492.318176,278.497467 495.149719,278.512024 495.406189,275.743378 
	C495.637512,273.246033 492.882660,273.068298 491.127838,272.300293 
	C490.215973,271.901245 489.253326,271.594543 488.288025,271.345184 
	C476.563080,268.316254 470.515289,260.529907 468.797791,248.750320 
	C467.327881,238.669113 466.301849,228.579666 466.930786,218.401657 
	C467.157318,214.735596 466.211182,211.656372 464.520935,208.442047 
	C455.152924,190.626770 455.651581,172.643829 464.180969,154.683411 
	C464.957794,153.047699 466.089569,151.546860 467.232849,150.125168 
	C470.825317,145.657944 472.190063,145.894180 474.927338,152.262207 
	C478.421387,143.840134 485.384613,145.810944 491.687439,145.662994 
	C500.498901,145.456161 509.319885,145.372025 518.114807,144.858368 
	C523.009155,144.572525 527.062683,145.209427 529.316650,150.148743 
	C529.514832,150.583145 529.918823,150.951538 530.298157,151.264801 
	C530.519348,151.447479 530.881287,151.459656 531.181152,151.548920 
	C532.687012,144.482422 539.524231,142.463654 544.995972,147.623978 
	C547.043396,149.554886 548.218506,150.410126 550.508789,147.700409 
	C553.026917,144.721115 554.654663,147.801987 555.781433,149.578903 
	C559.755737,155.846481 562.083679,162.781982 563.241821,170.091629 
	C565.384399,183.614471 563.772766,196.625122 557.734192,209.000732 
	C556.850464,210.812042 556.352478,212.614685 556.571777,214.749573 
	C557.887756,227.561417 557.969177,240.354050 554.926941,252.972244 
	C554.146362,256.209869 554.351074,257.825653 558.350769,257.022095 
	C561.858643,256.317352 565.184021,258.334412 568.346252,259.201935 
	C575.877808,261.268097 583.788696,261.395111 591.211182,264.574127 
	C594.402710,265.941040 599.005615,266.271393 603.038635,266.523804 
	C604.184509,266.595490 605.424377,266.416870 606.457520,266.797241 
	C609.287415,267.839111 615.971497,280.543121 615.410339,283.655121 
	C615.056641,285.616699 614.758301,287.634613 614.043396,289.475098 
	C612.524658,293.385193 612.622192,296.887390 614.350891,300.916382 
	C617.189758,307.532562 614.606201,314.270416 608.438721,318.165924 
	C606.178955,319.593231 604.763855,321.305267 604.115784,323.936066 
	C602.843323,329.101227 601.132202,334.161560 599.946716,339.343933 
	C598.949829,343.701477 596.605713,345.015289 592.364441,344.050812 
	C575.814758,340.287354 559.240417,336.632385 542.676331,332.932159 
	C542.352783,332.859863 542.047607,332.707733 541.725403,332.626434 
	C532.341675,330.258209 532.103149,330.436554 529.913208,340.017426 
	C529.057983,343.758820 527.862915,347.392151 525.796448,350.686310 
	C519.101013,361.359619 508.651398,361.420868 501.951721,350.800781 
	C496.591827,342.304535 495.144745,332.828766 495.305176,323.039124 
	C495.441772,314.703552 496.845947,306.504364 498.441010,298.329041 
	C499.822845,291.246613 498.446075,290.296692 491.354614,290.691132 
	C476.849487,291.497894 464.131927,286.694305 455.199188,275.186279 
	C450.609406,269.273224 445.216125,264.684631 439.616302,260.064850 
	C431.392578,253.280457 431.295929,248.662735 439.512268,240.463058 
M565.309265,318.051727 
	C566.443115,316.016785 567.509949,313.940277 568.736633,311.962921 
	C569.442749,310.824646 570.803894,309.371216 571.918274,310.379944 
	C574.020142,312.282379 576.337036,311.002228 578.276550,311.538300 
	C582.707092,312.762817 587.830200,311.805573 592.311890,315.196167 
	C588.446533,317.764191 586.223450,321.015259 588.169922,324.714905 
	C590.289185,328.743256 588.153320,328.895813 585.344421,329.268433 
	C584.279663,329.409698 582.928711,328.920868 582.248413,330.696808 
	C585.424561,332.587585 589.621338,335.021912 591.696777,331.055573 
	C594.272583,326.132996 596.357422,320.502380 594.997009,314.338165 
	C593.552124,307.791351 595.482971,301.486847 599.919556,296.885712 
	C605.176270,291.434174 605.465820,284.952576 606.893188,277.925476 
	C601.260254,280.758698 601.260254,280.758698 596.813843,275.461060 
	C591.783020,281.212128 589.935364,276.529785 588.140015,272.310059 
	C583.128967,277.587219 582.995422,277.564331 579.296753,271.183319 
	C573.801636,275.151031 573.801636,275.151031 569.695129,269.691925 
	C566.183838,274.061310 563.304016,272.315033 561.019714,268.494354 
	C555.438965,270.880707 555.438965,270.880707 551.785339,265.918732 
	C546.666809,268.986084 546.666809,268.986084 542.789368,262.677673 
	C539.354919,267.339172 536.208191,266.909149 533.837830,261.790161 
	C531.185547,263.052063 531.053894,265.436859 530.516357,267.398926 
	C526.603394,281.682434 522.809570,295.998688 518.999573,310.310303 
	C517.570801,315.677155 518.330444,317.215027 523.781677,318.549286 
	C532.831238,320.764221 541.928711,322.791992 551.035583,324.761963 
	C559.772217,326.651855 568.345459,329.486328 577.408508,329.729370 
	C578.356201,328.149597 578.899353,326.668030 578.653259,324.392487 
	C573.833008,325.194061 570.938660,319.699310 565.796509,320.772797 
	C564.936462,320.952301 564.909058,319.607208 565.309265,318.051727 
M523.682556,219.625504 
	C508.035522,218.519196 492.392334,220.919312 476.731567,219.648544 
	C473.281464,219.368561 471.400116,221.272202 471.296967,225.178741 
	C471.133240,231.379028 471.897186,237.492249 472.503906,243.606934 
	C473.037506,248.984940 475.375671,250.799271 480.809540,250.728500 
	C491.300964,250.591843 501.790558,250.865463 512.287720,250.205994 
	C518.469543,249.817627 524.813660,249.150009 530.950745,251.775894 
	C521.531372,253.640839 512.023254,254.295731 502.462433,254.616577 
	C506.801392,254.902222 511.160797,255.263962 515.437988,254.824997 
	C523.696228,253.977448 532.298523,257.731323 540.296875,252.940918 
	C541.036560,252.497925 542.651794,252.977264 543.594360,253.504257 
	C548.160095,256.056915 549.986267,253.785660 550.944397,249.616318 
	C553.205566,239.777161 552.623657,229.799820 552.313110,219.853928 
	C552.173523,215.383575 549.040344,214.142303 545.063843,214.118378 
	C525.400330,214.000092 505.735992,213.721542 486.078766,214.480835 
	C484.383850,214.546295 482.404816,213.994598 480.955444,216.368118 
	C487.347748,216.368118 493.418884,216.463577 499.486053,216.348740 
	C513.121704,216.090637 526.734192,214.732895 540.386841,215.413116 
	C542.519592,215.519394 544.963074,215.329758 546.823059,217.783401 
	C539.170837,219.439194 531.800537,218.843445 523.682556,219.625504 
M527.706055,187.123413 
	C528.349243,179.789032 525.163391,173.212051 523.560486,166.324982 
	C523.014343,163.978424 522.879578,160.900284 519.110107,161.770844 
	C515.380066,162.632309 509.635223,160.092300 509.342468,167.122696 
	C509.172791,171.196899 507.781067,174.898407 506.511322,178.694244 
	C505.035370,183.106537 503.644623,187.596420 502.809326,192.161026 
	C501.845123,197.430191 501.314026,203.567291 504.962219,207.443497 
	C509.196716,211.942703 515.645081,209.457962 521.161316,208.894989 
	C524.841187,208.519424 525.705933,205.202026 526.378967,202.341537 
	C527.483398,197.647247 528.121643,192.847702 527.706055,187.123413 
M483.312073,198.993576 
	C483.767822,200.849106 483.574005,203.028214 485.974030,204.157257 
	C489.442596,202.576660 489.660339,199.005432 489.720917,196.174286 
	C489.912292,187.233185 489.534027,178.277252 489.250244,169.331070 
	C489.199982,167.745987 489.126648,165.825836 487.328217,165.004028 
	C483.989319,163.478302 481.457916,160.854660 478.025116,158.014374 
	C474.926727,165.140060 473.094818,172.201157 472.720978,179.254028 
	C472.439789,184.558334 475.408051,185.897827 480.133209,184.127853 
	C481.158112,188.837250 482.177246,193.519928 483.312073,198.993576 
M531.013062,196.009415 
	C530.705444,198.472870 530.414795,200.926315 530.991821,203.404022 
	C531.399048,205.152420 532.457397,206.248276 534.151978,205.620834 
	C537.199951,204.492249 540.564758,203.626068 541.838867,199.985397 
	C543.801270,194.378311 545.060120,188.815460 541.249695,183.406830 
	C539.975525,181.598190 539.609497,178.393936 536.748047,178.806961 
	C533.475586,179.279297 531.774231,182.095123 531.388123,185.214249 
	C530.983948,188.480057 531.144104,191.815689 531.013062,196.009415 
z"/>
<path fill="#000000" opacity="1.000000" stroke="none" 
	d="
M560.909302,442.945557 
	C562.756653,440.150360 565.329651,438.559998 567.093872,436.062073 
	C569.674377,432.408447 574.263977,433.186005 576.858276,437.653992 
	C580.029968,443.116547 582.737854,448.847107 585.699219,454.433746 
	C586.589355,456.113007 587.002747,458.345062 589.697876,458.437744 
	C591.809814,456.575684 591.496460,453.980988 591.655457,451.555908 
	C592.036194,445.748230 592.291199,439.931396 592.742554,434.129578 
	C593.023621,430.516724 594.254272,427.316467 598.691589,427.760040 
	C602.810852,428.171783 603.541565,431.406219 603.243835,434.797821 
	C601.831848,450.880768 601.393433,466.998199 601.262512,483.132263 
	C601.237183,486.253174 600.635315,489.315796 596.996948,490.166687 
	C593.454468,490.995148 591.344788,488.787933 589.866760,485.967102 
	C586.854919,480.219025 584.021729,474.376526 580.961121,468.655212 
	C579.924927,466.718262 579.379761,464.212158 576.762939,463.497131 
	C574.567932,464.749573 575.372986,466.801147 575.333374,468.476807 
	C575.207520,473.801208 575.357727,479.132355 575.222168,484.456329 
	C575.142151,487.601135 573.752319,490.089355 570.255310,490.203400 
	C566.478455,490.326599 564.872559,487.732910 564.786804,484.412659 
	C564.601990,477.258698 564.789246,470.095642 564.650818,462.939667 
	C564.609497,460.803467 565.729126,457.450226 562.538452,457.105469 
	C559.081848,456.731995 559.299011,460.058563 559.037476,462.531677 
	C558.300842,469.497864 557.411926,476.375732 553.220947,482.394196 
	C546.272766,492.372070 532.766541,493.007294 525.087341,483.570496 
	C515.978943,472.377502 517.431213,452.016876 528.028870,442.330841 
	C535.548584,435.457977 545.502014,435.590088 552.602112,442.861237 
	C555.354065,445.679535 557.802551,447.187012 560.909302,442.945557 
M530.458191,462.394379 
	C529.882568,467.259857 530.098999,472.013794 532.983765,476.210144 
	C535.182312,479.408356 538.154419,480.935547 541.950562,479.115051 
	C545.431030,477.445923 548.804993,469.425903 547.923523,465.671265 
	C547.494751,463.844727 546.303772,463.289673 544.674561,463.301178 
	C541.125732,463.326202 537.812744,462.433990 534.635498,460.907410 
	C533.175293,460.205841 531.765320,460.033447 530.458191,462.394379 
M543.144592,453.469086 
	C545.074097,452.991943 546.142212,451.990875 544.996643,449.963898 
	C544.156799,448.477722 542.906555,447.360413 541.060730,447.519348 
	C539.616272,447.643707 538.473755,448.572540 538.487000,450.021210 
	C538.509460,452.481140 540.381653,453.201172 543.144592,453.469086 
z"/>
<path fill="#000000" opacity="1.000000" stroke="none" 
	d="
M441.959717,463.778748 
	C438.760559,466.137634 438.566406,468.644287 440.113586,471.833008 
	C444.763611,481.416656 449.859009,490.484222 460.737549,494.369598 
	C466.191956,496.317657 471.153809,495.913605 475.680389,492.028717 
	C478.268494,489.807495 481.266174,488.286621 483.990479,491.488220 
	C486.828339,494.823090 484.896271,497.946930 482.207245,500.151581 
	C473.634705,507.179749 463.998993,506.787354 454.411682,502.929382 
	C443.000488,498.337494 436.750244,488.729248 431.796112,478.072632 
	C430.805084,475.940857 430.694427,472.169250 427.591919,472.734009 
	C424.136353,473.363068 425.544678,477.082733 425.345367,479.556580 
	C425.145386,482.039246 425.393524,484.556458 425.225586,487.043701 
	C425.024536,490.022736 423.631195,492.163971 420.346436,492.285645 
	C417.074036,492.406830 415.592072,490.342957 414.988007,487.446503 
	C414.819672,486.639496 414.793640,485.791565 414.793274,484.962372 
	C414.786865,469.643005 414.707916,454.322906 414.837341,439.004608 
	C414.897125,431.934723 417.239532,429.762909 424.241455,429.751801 
	C431.143555,429.740845 437.395172,431.559753 442.397400,436.638306 
	C443.436157,437.692932 444.402130,438.909698 446.786926,439.042969 
	C448.645386,432.180389 454.455200,433.579865 459.661072,433.772003 
	C465.807251,433.998871 471.948273,434.438232 478.081421,434.915497 
	C481.344360,435.169403 484.752228,435.883728 485.112518,439.877686 
	C485.480530,443.957306 482.717499,445.193207 479.027374,445.349548 
	C472.316528,445.633820 471.254150,446.742157 471.190125,453.397034 
	C471.111633,461.554504 471.189056,469.713440 471.175232,477.871674 
	C471.172424,479.534515 471.190765,481.213806 470.976105,482.856354 
	C470.583862,485.858032 469.485077,488.554077 465.932404,488.648682 
	C462.189484,488.748291 460.591034,486.143433 460.317200,482.872437 
	C459.593811,474.231201 459.960724,465.572723 460.302216,456.921997 
	C460.348145,455.758728 460.512573,454.600098 460.555573,453.436859 
	C460.818695,446.323395 455.813049,441.610687 448.813995,442.458374 
	C446.325043,442.759827 446.818604,444.656281 447.035797,446.308990 
	C447.880859,452.738770 446.541718,458.551025 441.959717,463.778748 
M427.830078,459.519684 
	C432.565094,459.050354 435.901062,455.848480 436.609070,451.153442 
	C437.300690,446.566925 434.994965,443.538116 431.334290,441.407928 
	C429.198425,440.164978 426.532379,440.453979 426.097534,443.035919 
	C425.192505,448.410278 423.633698,454.016846 427.830078,459.519684 
z"/>
<path fill="#000000" opacity="1.000000" stroke="none" 
	d="
M380.764832,398.396027 
	C384.011139,388.344086 390.312134,384.877869 401.599640,386.962158 
	C405.469788,387.676758 408.769897,388.487122 410.469940,383.569580 
	C413.272491,375.462830 413.053192,373.788879 407.574066,370.453186 
	C402.667969,367.466400 398.150787,364.122742 395.718567,358.674835 
	C394.404236,355.730804 393.822754,352.741028 397.086151,350.719971 
	C400.718506,348.470428 402.532074,351.063660 404.171021,353.803131 
	C404.682312,354.657806 405.232574,355.515442 405.903412,356.244324 
	C412.127380,363.006378 415.266205,364.640747 418.710663,354.465179 
	C420.903534,347.987030 425.181244,343.175262 432.667816,342.560699 
	C442.671265,341.739594 449.213318,349.348846 446.868317,359.157776 
	C444.869812,367.517395 439.234253,372.430328 431.087219,374.013306 
	C425.863831,375.028229 423.142120,377.661682 422.252594,382.684631 
	C421.992340,384.154175 421.516876,385.590973 421.071991,387.021606 
	C417.489380,398.541779 425.226776,409.462311 437.356934,409.822144 
	C440.528625,409.916199 443.254791,410.644958 443.589294,414.141357 
	C443.958923,418.005249 441.346375,419.781189 437.844086,420.388367 
	C432.563293,421.303986 427.951782,419.423676 423.723053,416.597809 
	C421.246887,414.943085 418.937317,412.956055 416.844299,410.831390 
	C414.040955,407.985626 411.555969,407.418518 408.233978,410.209656 
	C404.705658,413.174225 400.400726,414.389771 395.698486,414.366943 
	C386.871155,414.324127 379.165314,406.990814 380.764832,398.396027 
M392.513519,401.922211 
	C394.791077,404.652435 397.415131,404.359680 400.003937,402.569611 
	C401.471375,401.554901 402.274292,399.931061 401.177582,398.235229 
	C399.671692,395.906586 397.232635,395.927795 394.918640,396.549957 
	C392.651794,397.159424 391.853912,398.910187 392.513519,401.922211 
M431.614319,354.352020 
	C429.795959,355.698120 428.796967,357.569275 428.187714,359.691925 
	C427.797668,361.050842 427.666229,362.374359 429.153625,363.165710 
	C430.996857,364.146362 432.351929,362.987701 433.595703,361.900360 
	C435.226898,360.474243 436.884308,358.986481 436.194733,356.418884 
	C435.632812,354.326752 434.515991,353.194702 431.614319,354.352020 
z"/>
<path fill="#000000" opacity="1.000000" stroke="none" 
	d="
M617.324036,413.015656 
	C605.955322,414.880615 597.226929,411.528076 591.157898,401.997925 
	C589.368835,399.188507 586.703125,398.312805 583.478821,398.213409 
	C580.381836,398.117950 577.256104,397.409821 576.813782,393.577759 
	C576.389160,389.898987 579.043579,388.673737 582.051697,388.180328 
	C585.538208,387.608429 585.937866,385.286163 585.983643,382.336639 
	C586.126526,373.126251 588.077942,364.475586 594.726135,357.553680 
	C601.734131,350.257019 611.312439,348.704651 618.162231,353.665771 
	C624.428284,358.204132 626.191101,368.556488 622.002747,376.920959 
	C618.768921,383.378998 613.724731,388.082611 607.435974,391.557861 
	C605.311462,392.731842 602.259399,393.662628 602.598938,396.624634 
	C602.980774,399.955719 606.004761,401.378876 608.941040,402.275421 
	C614.225708,403.888885 620.932190,401.068726 624.436035,395.665771 
	C625.780762,393.592255 626.731262,391.242310 627.696899,388.949066 
	C628.841919,386.230225 630.513000,384.204315 633.700500,384.972809 
	C636.872498,385.737610 637.577026,388.382843 637.329651,391.254608 
	C636.663208,398.992920 632.188293,404.414093 626.261902,408.835388 
	C623.716492,410.734344 620.819031,412.042725 617.324036,413.015656 
M612.939392,365.456329 
	C609.924255,361.417145 607.098450,360.968445 603.583130,364.249969 
	C599.184814,368.355743 597.771973,373.830170 597.462952,379.553131 
	C597.283936,382.869080 599.611084,383.325470 602.246277,382.432495 
	C608.258301,380.395203 613.295898,372.846832 612.939392,365.456329 
z"/>
<path fill="#000000" opacity="1.000000" stroke="none" 
	d="
M532.823792,375.688538 
	C535.757812,375.456451 538.251160,374.968811 540.715027,375.088562 
	C543.629883,375.230225 545.894531,376.757812 546.117859,379.941467 
	C546.339417,383.100189 544.475891,384.635345 541.479309,385.430328 
	C529.692688,388.557251 529.781067,388.645508 530.637329,400.938751 
	C531.065308,407.082367 531.109192,413.255066 531.234802,419.416504 
	C531.311890,423.200073 530.411987,426.561035 525.949036,427.167664 
	C522.490051,427.637817 519.979980,424.674561 519.842529,419.620789 
	C519.620667,411.461639 519.553162,403.290375 519.735901,395.131256 
	C519.836792,390.626587 518.201416,388.234344 513.594482,387.860138 
	C510.651215,387.621033 507.713806,386.708496 507.354919,383.224579 
	C506.943604,379.231689 504.571594,378.788757 501.418549,379.158600 
	C498.165161,379.540161 495.595917,380.720581 495.286072,384.484985 
	C494.958374,388.466492 494.556244,392.444458 494.344604,396.432373 
	C493.938721,404.081238 493.673737,411.737549 493.290619,419.387756 
	C493.120544,422.783875 491.698853,425.339264 487.885193,425.166718 
	C484.253143,425.002319 482.706573,422.635071 482.635040,419.134796 
	C482.406891,407.964264 482.925659,396.811005 483.888275,385.696991 
	C484.308807,380.842041 482.126587,378.987091 477.864166,378.449615 
	C476.873657,378.324738 475.839172,378.366028 474.895203,378.090332 
	C472.467133,377.381226 470.759155,375.945862 470.688019,373.182953 
	C470.615997,370.385284 472.237854,368.877655 474.735779,368.238342 
	C476.007568,367.912872 477.363800,367.788177 478.681274,367.791718 
	C486.511200,367.812714 494.342407,367.825195 502.170319,367.982178 
	C509.603973,368.131256 511.405975,370.192963 510.543488,377.757172 
	C517.883972,377.065918 525.127014,376.383881 532.823792,375.688538 
z"/>
<path fill="#000000" opacity="1.000000" stroke="none" 
	d="
M352.298401,492.288879 
	C344.113983,491.026733 339.305054,486.042389 336.888641,479.109863 
	C330.141052,459.751831 331.768738,440.838562 341.115082,422.621338 
	C342.885132,419.171326 345.493927,416.361450 348.942932,414.427826 
	C355.256287,410.888458 361.997803,411.376068 367.064301,415.754333 
	C371.683990,419.746521 374.141113,429.089600 371.993652,434.643433 
	C371.060211,437.057556 369.331299,438.476746 366.649261,438.283997 
	C364.082550,438.099487 362.886902,436.411957 362.512177,434.037598 
	C362.201111,432.066650 362.142212,430.036224 361.640594,428.118774 
	C360.309174,423.029266 356.447021,421.971039 352.808685,425.743195 
	C348.189178,430.532623 346.863098,436.802124 345.707825,443.019623 
	C343.993530,452.245667 343.517365,461.512268 346.163696,470.681427 
	C346.713623,472.586914 347.432495,474.465332 348.281494,476.257690 
	C349.562378,478.962097 351.501129,481.046173 354.780792,480.829498 
	C358.152679,480.606750 359.436584,477.969116 360.448792,475.248016 
	C360.968903,473.849884 361.274170,472.372467 361.688843,470.934387 
	C362.542450,467.974091 364.439301,466.349030 367.580597,466.841675 
	C370.569061,467.310364 371.759735,469.593903 371.693329,472.284149 
	C371.484650,480.741119 364.954529,493.862549 352.298401,492.288879 
z"/>
<path fill="#000000" opacity="1.000000" stroke="none" 
	d="
M407.404602,461.767639 
	C408.668701,469.901184 409.977173,477.588989 411.054260,485.309082 
	C411.502197,488.519623 410.561981,491.591278 407.024719,492.346649 
	C403.163391,493.171143 401.204956,490.681458 400.496552,487.144135 
	C399.877502,484.052887 399.079926,480.956665 398.887543,477.830231 
	C398.603821,473.219604 395.511322,472.661774 392.016449,472.389038 
	C388.461243,472.111603 385.811737,473.043427 385.113678,477.105713 
	C384.580231,480.209930 383.873322,483.298401 383.013580,486.328613 
	C382.116028,489.492065 380.762878,492.701813 376.600311,491.652130 
	C372.354431,490.581512 372.200226,486.996704 372.956970,483.571411 
	C375.641724,471.419037 378.394501,459.279297 381.338043,447.187500 
	C382.789246,441.225952 384.697845,435.374878 386.431824,429.483368 
	C387.454346,426.009094 389.358673,423.586334 393.387573,423.484528 
	C397.478607,423.381104 399.427185,425.999878 400.618713,429.246918 
	C403.666077,437.551331 404.465576,446.376190 406.256042,454.972504 
	C406.694611,457.078308 406.992889,459.213287 407.404602,461.767639 
M389.149902,459.856812 
	C389.628510,462.287811 391.341156,462.433167 393.296143,462.065277 
	C394.984711,461.747528 395.976990,460.646881 395.924713,458.979523 
	C395.787842,454.611816 395.449341,450.258209 393.768127,445.988037 
	C390.989349,448.494171 390.080048,451.168610 389.149902,459.856812 
z"/>
<path fill="#000000" opacity="1.000000" stroke="none" 
	d="
M490.717926,99.083664 
	C491.409271,94.054802 494.106506,91.010117 498.528595,89.979790 
	C501.559204,89.273682 502.826385,87.550934 503.958557,84.890190 
	C508.304199,74.677261 517.562988,72.646233 525.881165,80.045982 
	C527.619263,81.592178 529.183960,81.863083 531.302429,81.303429 
	C536.402222,79.956207 540.170654,81.921364 542.342773,86.560829 
	C543.431702,88.886589 544.972961,90.112465 547.323364,90.959259 
	C551.169800,92.345024 553.261963,95.444580 553.068176,99.437027 
	C552.861816,103.690239 549.550110,105.438232 545.832275,105.634239 
	C533.905029,106.263031 522.015137,107.942398 510.044495,107.332283 
	C505.590576,107.105278 501.075836,107.986153 496.666046,106.480667 
	C493.207123,105.299805 490.746399,103.484962 490.717926,99.083664 
z"/>
<path fill="#000000" opacity="1.000000" stroke="none" 
	d="
M653.583740,424.624023 
	C655.488831,427.696960 656.605347,430.638702 656.122498,433.924835 
	C655.722534,436.646942 654.187500,438.675812 651.376099,438.990936 
	C648.698425,439.291046 647.223755,437.663849 646.346680,435.115234 
	C645.389954,432.334991 644.308472,428.673798 640.296265,430.331665 
	C636.507019,431.897461 636.533447,435.660248 637.702637,438.964874 
	C639.510986,444.076263 643.146729,448.067413 646.713440,452.038177 
	C653.282776,459.351501 657.748840,467.414368 656.373535,477.744019 
	C655.181702,486.695984 647.699524,493.040985 639.085083,492.229675 
	C630.837769,491.452942 623.427124,482.783173 624.053833,474.482544 
	C624.312012,471.063934 625.684998,468.167725 629.594482,467.915283 
	C633.515137,467.662201 634.470947,470.183838 634.756958,473.681244 
	C635.175598,478.800659 637.931702,481.827606 640.935791,481.220673 
	C644.285828,480.543854 646.259521,475.692719 645.044861,471.251923 
	C643.594788,465.950439 640.330017,461.770660 636.841980,457.705231 
	C631.940186,451.991913 627.336365,446.150787 626.042114,438.362335 
	C623.967529,425.877991 635.422058,415.615234 647.066589,419.620728 
	C649.691833,420.523773 651.708008,422.152985 653.583740,424.624023 
z"/>
<path fill="#000000" opacity="1.000000" stroke="none" 
	d="
M397.064819,225.947754 
	C389.819977,217.891479 383.121521,209.792953 375.731720,202.383926 
	C369.119476,195.754486 366.359283,187.350800 363.103210,179.076996 
	C362.284546,176.996658 361.830200,174.789825 363.827484,173.093689 
	C365.872681,171.356873 367.790588,172.667679 369.830414,173.483185 
	C384.272461,179.256927 392.532440,191.898376 402.409332,202.720474 
	C406.554993,207.262878 410.427124,212.057312 414.368866,216.782822 
	C418.236847,221.419891 417.985504,223.942169 413.363525,228.238831 
	C408.024994,233.201569 404.840088,233.492722 400.483734,229.384323 
	C399.394989,228.357544 398.366486,227.266891 397.064819,225.947754 
z"/>
<path fill="#000000" opacity="1.000000" stroke="none" 
	d="
M620.244873,205.369949 
	C614.825745,205.443344 613.820557,203.719284 615.547791,198.567749 
	C618.594421,189.480911 623.200562,181.426773 629.951477,174.502655 
	C637.607056,166.650604 644.933655,158.476944 652.370361,150.412735 
	C655.387573,147.140945 658.633240,146.905121 662.051514,149.611374 
	C663.606018,150.842087 664.980530,152.307617 666.387085,153.716156 
	C669.472656,156.806091 669.771362,159.853638 666.645386,163.273071 
	C656.218994,174.678284 646.046509,186.318878 635.481934,197.592926 
	C631.568909,201.768692 625.379639,202.311386 620.244873,205.369949 
z"/>
<path fill="#000000" opacity="1.000000" stroke="none" 
	d="
M666.189087,412.036957 
	C672.447510,410.076813 678.340820,408.285034 684.204773,406.401978 
	C687.915771,405.210236 691.518127,405.083557 692.882263,409.410461 
	C694.201904,413.596252 691.448120,415.851440 687.695801,417.082794 
	C679.383545,419.810669 679.302368,419.912689 679.313538,428.673126 
	C679.335938,446.169189 679.387512,463.665222 679.423645,481.161285 
	C679.426086,482.327484 679.419922,483.494415 679.382324,484.659851 
	C679.272522,488.063599 677.931274,490.671326 674.201965,490.736145 
	C670.469788,490.801056 668.748779,488.122772 668.767578,484.837311 
	C668.860657,468.514191 667.372375,452.206543 668.315491,435.878662 
	C668.411499,434.216095 668.570068,432.555054 668.603394,430.891357 
	C668.725525,424.800201 668.250427,424.262543 662.278137,424.275208 
	C659.204773,424.281708 656.456482,423.796082 655.777771,420.259705 
	C655.061340,416.526398 657.407654,414.791870 660.565735,413.793091 
	C662.311218,413.241119 664.062683,412.708191 666.189087,412.036957 
z"/>
<path fill="#000000" opacity="1.000000" stroke="none" 
	d="
M498.832001,489.121460 
	C484.682678,487.470642 477.013519,475.875214 480.056213,461.068939 
	C481.271484,455.155487 483.233551,449.463959 488.481781,445.715729 
	C497.316833,439.405731 509.134033,442.373840 513.699768,452.197113 
	C517.209106,459.747498 517.450745,467.662323 514.797180,475.492004 
	C512.284363,482.906494 507.548248,488.122772 498.832001,489.121460 
M505.711243,465.429810 
	C505.896667,462.043762 505.453979,458.824219 503.463074,455.934662 
	C500.544220,451.698242 497.058807,451.461029 493.675110,455.329865 
	C489.520905,460.079681 489.153229,470.999146 492.980377,475.962677 
	C495.911194,479.763733 500.131287,479.689056 502.841309,475.659637 
	C504.724915,472.858917 505.788757,469.728760 505.711243,465.429810 
z"/>
<path fill="#000000" opacity="1.000000" stroke="none" 
	d="
M561.897522,423.274780 
	C554.321960,423.293365 553.210938,422.558990 552.448120,415.696014 
	C550.793701,400.809875 550.473450,385.855591 550.674988,370.887268 
	C550.722473,367.360535 551.782471,364.332825 555.804626,364.283112 
	C559.862061,364.233002 560.969788,367.482239 561.190063,370.818298 
	C561.945007,382.247559 562.768005,393.679932 563.118469,405.124817 
	C563.274048,410.206146 565.410217,411.606049 569.970093,410.713379 
	C573.878540,409.948181 577.804321,409.271271 581.712891,408.506500 
	C585.201660,407.823883 588.301758,408.248169 589.036804,412.317505 
	C589.729065,416.149963 587.271851,418.272186 583.839722,419.010590 
	C576.702271,420.546265 569.514160,421.846466 561.897522,423.274780 
z"/>
<path fill="#000000" opacity="1.000000" stroke="none" 
	d="
M622.874390,214.623871 
	C629.057068,218.079361 626.432190,222.984848 625.251221,227.430206 
	C624.609436,229.845627 624.388428,231.669083 626.955200,232.800507 
	C629.236877,233.806229 631.236755,233.116562 632.800659,231.358002 
	C634.371155,229.592117 633.895020,227.696823 632.808472,225.818893 
	C631.051880,222.782715 629.308044,219.676575 629.132690,216.097046 
	C628.977600,212.930298 628.870300,209.324371 632.856506,208.345169 
	C636.505615,207.448792 638.016052,210.405472 639.606689,213.046875 
	C641.918091,216.885300 640.557800,221.563141 642.402649,225.511826 
	C647.589661,223.461609 648.171875,221.886810 645.171570,218.153397 
	C643.144043,215.630371 641.654785,212.870636 641.224792,209.660049 
	C640.867126,206.989487 641.509216,204.585037 644.291809,203.498505 
	C647.016174,202.434738 648.689697,204.208008 650.136841,206.129242 
	C652.125366,208.769089 652.391113,211.975647 652.922729,215.088867 
	C653.138611,216.352753 652.948120,217.948608 654.704895,218.267334 
	C656.158630,218.531082 657.320618,217.691528 658.176819,216.655396 
	C661.514465,212.616150 662.451599,208.121048 660.488464,203.151169 
	C659.821411,201.462341 658.743896,199.920059 658.757568,197.991028 
	C658.772095,195.955963 659.551697,194.427383 661.528809,193.711685 
	C663.385925,193.039429 665.248901,193.066345 666.515808,194.758408 
	C667.752014,196.409576 667.676514,198.484497 666.234863,199.804947 
	C663.371826,202.427353 663.580322,205.306213 663.933044,208.854736 
	C664.644958,216.016922 661.829590,222.328262 654.078979,223.042435 
	C652.446960,223.192810 651.269958,223.940414 650.400574,225.279297 
	C650.220337,225.557007 650.022644,225.845566 649.769409,226.050507 
	C644.202637,230.555496 637.686829,234.275360 631.365417,236.531021 
	C625.522644,238.615860 618.193237,235.260986 611.172852,236.632446 
	C607.355286,237.378204 604.118408,231.605103 604.792419,226.928268 
	C605.681213,220.761490 607.878418,215.108307 613.116333,210.251328 
	C613.557556,213.940567 611.321655,216.210922 610.555542,218.868423 
	C609.682434,221.897003 608.184753,224.785355 608.367004,228.028000 
	C608.532288,230.969406 609.749451,233.542999 613.130066,233.132538 
	C616.228699,232.756317 618.604431,231.438934 618.134705,227.201065 
	C617.616577,222.527374 615.821350,216.947922 622.874390,214.623871 
M636.280212,221.835358 
	C638.745544,218.811539 637.669250,216.575104 634.671448,214.380066 
	C632.434143,217.478653 633.504700,219.739258 636.280212,221.835358 
z"/>
<path fill="#000000" opacity="1.000000" stroke="none" 
	d="
M430.510620,120.708603 
	C432.418579,125.491615 431.429077,126.821671 426.852356,126.160957 
	C425.870972,126.019279 424.864502,125.805969 423.960541,125.415215 
	C419.785797,123.610596 417.141754,125.192604 414.847137,128.831329 
	C413.369843,131.173935 412.449951,135.388062 408.823029,134.430801 
	C405.520233,133.559082 405.981079,129.456482 405.735992,126.659325 
	C405.382019,122.619034 403.220886,120.803322 399.681152,119.775040 
	C397.501831,119.141937 394.548431,118.840286 394.177094,116.182182 
	C393.783630,113.365944 396.670532,112.458427 398.728546,111.618446 
	C403.441833,109.694679 405.414734,106.458305 404.559265,101.420975 
	C404.367828,100.293831 404.513519,99.098824 404.586273,97.940231 
	C404.669250,96.619118 404.659119,95.189316 406.128448,94.512039 
	C407.822510,93.731178 408.950226,94.923302 410.124176,95.809837 
	C410.650818,96.207535 411.168762,96.666595 411.550507,97.198448 
	C414.718384,101.612411 418.750336,102.682129 423.796600,100.685616 
	C425.579254,99.980324 427.726837,98.875908 429.416779,100.639229 
	C431.362366,102.669327 429.894745,104.951248 428.738800,106.555420 
	C424.978424,111.773979 426.494843,116.158257 430.510620,120.708603 
z"/>
<path fill="#000000" opacity="1.000000" stroke="none" 
	d="
M616.482727,112.576675 
	C619.456970,113.035454 621.979919,110.786407 624.676392,112.422592 
	C625.487976,115.423294 623.442017,117.065407 621.593201,118.645966 
	C614.797119,124.456078 604.725708,124.667725 597.096497,119.264503 
	C590.382019,114.509140 587.183167,104.756691 589.827881,97.104652 
	C592.870728,88.300644 601.198792,82.497658 610.011414,83.116898 
	C611.321594,83.208969 612.697937,83.428261 613.885742,83.948898 
	C615.785095,84.781403 616.409729,86.110764 614.512329,87.696892 
	C614.135010,88.012321 613.679688,88.240967 613.243347,88.478256 
	C608.161438,91.241600 604.830811,95.434441 605.479126,101.277122 
	C606.147217,107.298286 610.433838,110.772591 616.482727,112.576675 
z"/>
<path fill="#000000" opacity="1.000000" stroke="none" 
	d="
M593.062012,164.523743 
	C594.403564,160.090408 591.530457,158.081131 589.070862,155.839279 
	C587.738892,154.625259 585.853271,153.456528 586.313293,151.423019 
	C586.805115,149.248642 589.148193,149.059189 590.843384,149.089447 
	C597.040161,149.200073 600.755432,146.249191 602.866943,140.585007 
	C603.500122,138.886658 604.224670,136.402649 606.853088,136.876617 
	C609.017273,137.266861 609.232361,139.468872 609.596252,141.214142 
	C610.612610,146.089798 613.407654,148.689896 618.488098,149.030014 
	C620.191345,149.144028 622.397095,149.385239 623.002136,151.521652 
	C623.608643,153.663284 621.930847,154.992737 620.443665,155.957489 
	C615.690308,159.041122 615.430420,163.384766 616.604858,168.253525 
	C616.995178,169.871552 617.584595,171.696045 615.939880,172.855331 
	C614.127380,174.132919 612.398560,173.103348 610.968506,171.888443 
	C606.783508,168.333069 602.672913,167.382690 598.259705,171.602219 
	C596.976318,172.829254 595.194214,173.957474 593.296570,172.791809 
	C591.309937,171.571518 592.012695,169.624161 592.400024,167.837311 
	C592.611145,166.863525 592.783264,165.881332 593.062012,164.523743 
z"/>
<path fill="#000000" opacity="1.000000" stroke="none" 
	d="
M460.105652,422.163086 
	C451.153809,420.302002 446.951721,415.549957 446.906311,406.924042 
	C446.859589,398.046051 448.983643,389.463379 451.395569,380.978729 
	C452.276428,377.880066 454.407135,376.145294 457.763367,376.767487 
	C461.400879,377.441833 461.997040,380.309143 461.578796,383.275970 
	C460.884155,388.203217 459.790649,393.073059 458.953186,397.982056 
	C458.619690,399.937042 458.393036,401.928986 458.347107,403.909454 
	C458.290222,406.362518 457.826508,409.204712 460.739532,410.434906 
	C463.574890,411.632263 465.467346,409.640076 467.154541,407.769196 
	C469.049377,405.668121 471.175171,404.481720 473.627289,406.506653 
	C476.069153,408.523163 475.872772,411.278259 474.395081,413.751251 
	C471.285095,418.955780 466.664215,421.871582 460.105652,422.163086 
z"/>
<path fill="#000000" opacity="1.000000" stroke="none" 
	d="
M619.401245,473.817627 
	C619.439880,477.949249 619.616760,481.612671 619.444092,485.259583 
	C619.313416,488.020416 617.881165,490.034271 614.856873,490.249451 
	C611.865234,490.462250 610.180359,488.685150 609.463867,486.038177 
	C608.991943,484.294861 608.744019,482.437042 608.739380,480.629578 
	C608.702637,466.299377 608.698242,451.968536 608.814270,437.638947 
	C608.835571,435.001740 609.196594,432.304321 609.856995,429.752777 
	C610.527771,427.161560 612.637146,426.066467 615.283447,426.459503 
	C617.731750,426.823120 619.208191,428.375336 619.277405,430.855530 
	C619.402771,435.350433 619.353821,439.850494 619.360901,444.348389 
	C619.376038,454.013031 619.380432,463.677704 619.401245,473.817627 
z"/>
<path fill="#000000" opacity="1.000000" stroke="none" 
	d="
M424.437500,171.828171 
	C424.723389,172.822983 424.992279,173.438263 425.163330,174.079666 
	C425.781677,176.398575 427.932190,178.885742 425.823151,181.082504 
	C423.501740,183.500565 421.187866,181.130829 419.128876,179.984802 
	C415.434448,177.928528 412.851196,179.844162 410.145264,182.004272 
	C408.921875,182.980881 407.639343,184.624954 405.782684,183.603271 
	C404.003876,182.624435 404.290375,180.730957 404.602814,179.105453 
	C405.434540,174.778503 404.138184,171.656631 399.989655,169.753113 
	C398.539124,169.087524 396.808167,168.183426 397.237061,166.087631 
	C397.583618,164.393997 399.068604,163.801849 400.611267,163.564453 
	C405.519531,162.809174 408.152496,159.925354 409.084930,155.102051 
	C409.420441,153.366867 410.165100,151.294983 412.367462,151.178284 
	C414.277496,151.077103 415.160004,152.864685 415.877441,154.335510 
	C417.651703,157.972778 420.427582,159.320419 424.417847,158.845612 
	C426.296753,158.622025 428.751190,158.033173 429.783844,160.320099 
	C430.787720,162.543381 428.633026,163.888855 427.529877,165.474838 
	C426.233337,167.338898 424.071899,168.752121 424.437500,171.828171 
z"/>
<path fill="#000000" opacity="1.000000" stroke="none" 
	d="
M472.417236,84.196350 
	C472.932922,85.667267 472.326569,86.687416 471.404633,86.932228 
	C466.650269,88.194725 465.645508,91.178719 467.767639,95.894035 
	C462.459015,95.612144 460.624969,98.086067 460.514862,102.709846 
	C460.465088,104.801682 457.791534,106.366722 456.937897,103.859406 
	C455.231781,98.848343 452.494476,97.490631 446.990784,99.848595 
	C449.595398,92.040321 442.652985,93.683022 439.932983,91.576660 
	C440.266602,88.041267 443.379852,88.263687 444.927368,86.730553 
	C447.040375,84.637230 444.154633,82.707573 444.798004,80.497650 
	C446.284698,78.393112 449.774902,80.844505 451.159851,77.885078 
	C452.170685,75.725082 450.415436,72.694923 453.210022,71.220490 
	C454.775818,71.213737 455.568268,72.235970 455.816071,73.328506 
	C456.993469,78.519371 462.595001,74.865105 464.125549,77.253349 
	C465.834747,79.920372 465.752289,83.686378 470.380096,83.144684 
	C470.944366,83.078644 471.581116,83.632256 472.417236,84.196350 
z"/>
<path fill="#000000" opacity="1.000000" stroke="none" 
	d="
M371.773560,230.769363 
	C369.695038,232.212021 367.067322,232.815735 367.549347,236.114807 
	C371.357025,236.479111 374.397186,234.646393 377.544708,233.349701 
	C380.320343,232.206192 383.057800,230.992325 386.088257,230.731735 
	C388.376617,230.534988 390.451447,231.008102 391.679443,233.175232 
	C392.846039,235.233978 391.893494,237.018250 390.720673,238.717224 
	C389.613464,240.321136 388.043304,241.654785 387.369568,244.841660 
	C393.628357,242.586548 398.903442,242.509369 400.336945,250.012482 
	C399.997009,250.356857 399.649506,250.825104 399.562103,250.780762 
	C395.002411,248.466919 390.493988,248.925369 385.600189,250.013550 
	C382.224670,250.764130 380.592255,246.573959 382.364166,242.615952 
	C383.217255,240.710403 385.218445,239.327850 385.139893,237.013290 
	C383.202942,235.322449 381.518707,236.575577 379.889709,237.141281 
	C376.435852,238.340698 373.082825,239.854156 369.587708,240.903076 
	C366.989746,241.682724 364.107056,241.886368 362.412903,239.120255 
	C360.764862,236.429337 362.053467,234.028275 363.839447,231.848633 
	C365.571289,229.735092 367.900635,228.478989 370.217834,227.143341 
	C371.855316,226.199509 374.087646,225.935837 374.926880,223.498764 
	C372.349579,221.581543 369.534424,222.383286 366.827362,222.676651 
	C363.062531,223.084656 358.518036,223.416260 357.455017,219.269470 
	C356.248474,214.562866 360.952942,213.138504 364.522888,211.812927 
	C366.261566,211.167358 368.217194,210.227356 370.434540,212.069595 
	C367.842072,214.611755 363.539825,214.161575 361.678864,217.826828 
	C365.588501,220.023605 369.576752,218.243484 373.363770,218.655624 
	C376.623993,219.010437 381.160370,217.267303 382.215881,221.924576 
	C383.256744,226.517197 378.435089,227.051407 375.675873,228.840378 
	C374.568756,229.558182 373.290588,230.012177 371.773560,230.769363 
z"/>
<path fill="#000000" opacity="1.000000" stroke="none" 
	d="
M580.708740,212.718048 
	C580.948303,209.115219 577.092957,209.905746 575.926697,207.311234 
	C577.712952,204.791306 582.528320,203.297760 579.994263,198.861542 
	C582.031738,197.033218 585.057861,200.245880 586.348083,196.881882 
	C587.116089,194.879288 585.748840,192.021866 588.823059,190.750168 
	C591.797913,192.121796 590.539673,195.497894 591.747192,197.433289 
	C593.711914,198.661148 595.356873,195.944962 597.113647,197.429260 
	C598.755981,199.110275 596.415161,200.879730 597.031372,202.296906 
	C598.633240,204.700089 602.019775,202.626495 603.180115,205.380997 
	C602.501282,208.169693 599.112122,207.352142 597.870850,209.365173 
	C597.143494,211.093231 599.611389,212.270676 598.564148,214.249969 
	C597.080811,215.940918 593.476685,212.930344 592.517212,216.643280 
	C591.931152,218.911407 592.706604,221.759995 590.150452,223.268982 
	C588.511780,223.247391 588.032288,222.156876 587.832336,220.992828 
	C587.286560,217.815002 587.214539,214.504059 582.212769,215.993240 
	C580.496155,216.504349 580.601440,214.398926 580.708740,212.718048 
z"/>
<path fill="#000000" opacity="1.000000" stroke="none" 
	d="
M576.864990,123.185692 
	C578.787292,124.033592 581.259949,123.786652 581.399841,126.159569 
	C581.524841,128.278900 579.323303,128.524551 577.846008,129.049103 
	C573.862793,130.463516 571.667297,133.346603 570.549377,137.266037 
	C570.066040,138.960815 570.101318,140.973892 568.076660,141.821213 
	C565.988037,141.800095 565.775146,140.137527 565.345093,138.758575 
	C563.896667,134.114502 561.817566,130.259644 556.438354,129.021469 
	C554.065308,128.475235 552.876831,125.946938 555.863037,124.992683 
	C562.115906,122.994537 564.854797,118.635002 566.168579,112.748055 
	C566.338867,111.984940 566.943604,111.273628 568.623840,111.103317 
	C572.136719,114.144005 570.848755,121.122192 576.864990,123.185692 
z"/>
<path fill="#000000" opacity="1.000000" stroke="none" 
	d="
M371.327423,150.613739 
	C377.102814,145.545227 371.610962,142.473541 369.322052,139.375702 
	C371.794159,135.809235 375.348938,140.157745 377.305542,137.361008 
	C378.771362,135.265793 377.640930,131.974457 381.009613,129.806259 
	C382.533203,135.593506 385.915344,138.194351 391.585999,134.596695 
	C392.585175,139.050262 388.241302,140.082016 387.955292,143.261536 
	C388.693298,145.456680 391.349731,145.586807 392.704163,147.217896 
	C393.362640,148.010941 393.920837,148.823563 393.483185,149.907288 
	C393.132690,150.775162 392.255493,151.423279 391.534485,151.113220 
	C385.395813,148.473297 384.601837,152.656738 383.794556,156.978790 
	C383.725677,157.347595 383.089661,157.610474 382.557739,158.056061 
	C382.028534,157.701752 381.212860,157.463959 381.037201,156.989288 
	C379.629486,153.186264 378.125854,150.328720 373.285919,153.410843 
	C371.618042,154.472961 370.637115,152.854202 371.327423,150.613739 
z"/>
<path fill="#000000" opacity="1.000000" stroke="none" 
	d="
M572.696655,89.669540 
	C571.936951,92.163376 572.056885,94.706818 569.690125,95.931366 
	C567.036438,94.607712 567.148743,92.156067 566.929810,90.163536 
	C566.458618,85.876389 564.205444,83.579140 560.136963,82.660057 
	C558.600830,82.313042 556.380066,82.352226 556.362610,80.154045 
	C556.345398,77.992088 558.431824,77.818535 560.055176,77.596207 
	C564.681519,76.962624 566.241150,73.881287 567.069946,69.728348 
	C567.478455,67.681282 566.777344,64.863823 569.636719,63.685883 
	C572.055237,64.596825 571.893555,66.839844 572.173950,68.692131 
	C572.917847,73.606079 574.832520,77.272476 580.451233,77.662247 
	C581.787537,77.754944 583.279785,78.041031 583.275330,79.825394 
	C583.270935,81.564079 581.764465,81.925323 580.468811,82.118111 
	C576.222839,82.749886 573.304077,84.702812 572.696655,89.669540 
z"/>
<path fill="#000000" opacity="1.000000" stroke="none" 
	d="
M446.948975,137.182388 
	C445.429749,133.942612 441.745575,133.646271 439.731018,130.378540 
	C444.964447,126.789673 448.050354,121.587288 448.908997,115.534515 
	C451.081390,115.248924 451.816315,116.232277 452.053528,117.394974 
	C452.974548,121.909111 455.095764,125.338882 459.516052,127.299332 
	C461.993835,128.398254 462.199097,130.378891 459.679626,131.729446 
	C455.709961,133.857361 454.290955,137.407547 453.511597,141.466125 
	C453.241241,142.874054 453.432159,144.826965 451.376587,144.863235 
	C449.485443,144.896591 449.311951,143.018906 448.788452,141.652039 
	C448.256012,140.261765 447.692230,138.883484 446.948975,137.182388 
z"/>
<path fill="#000000" opacity="1.000000" stroke="none" 
	d="
M431.609863,198.544388 
	C431.950073,196.562790 431.902161,194.820282 434.192230,193.217468 
	C436.273621,198.102066 439.008240,202.514740 444.776367,203.755203 
	C442.949585,206.895508 439.734894,207.008179 438.424622,209.581512 
	C437.233826,211.920181 438.027039,214.964859 435.151764,217.367691 
	C431.707825,213.604401 431.105347,207.170914 424.378693,206.619568 
	C426.710236,203.018341 431.118774,202.794418 431.609863,198.544388 
z"/>
<path fill="#000000" opacity="1.000000" stroke="none" 
	d="
M487.013306,119.123741 
	C485.314758,120.418304 483.356171,120.768509 482.581635,122.713058 
	C481.931152,124.346085 482.529388,126.481171 480.073090,127.981003 
	C476.805389,125.514610 476.447418,119.945656 471.035370,118.853157 
	C475.205048,116.170868 477.106689,112.519753 478.110199,108.800926 
	C480.038391,108.541054 480.745544,109.347870 480.988739,110.310936 
	C481.732056,113.254471 483.014648,115.451103 486.368225,116.041405 
	C487.670868,116.270699 487.969025,117.590973 487.013306,119.123741 
z"/>
<path fill="#000000" opacity="1.000000" stroke="none" 
	d="
M456.579895,360.576080 
	C461.461853,358.673065 464.528778,359.707977 465.856201,363.359131 
	C467.057678,366.663727 465.320374,370.385345 461.980682,371.408783 
	C458.312561,372.532928 455.786469,371.014282 454.372192,367.634125 
	C453.246582,364.943878 454.674164,362.822876 456.579895,360.576080 
z"/>
<path fill="#000000" opacity="1.000000" stroke="none" 
	d="
M429.334412,254.519455 
	C429.662323,258.139923 432.939972,260.030273 433.339783,263.284760 
	C431.674347,265.172791 426.781097,261.471558 428.120392,267.046387 
	C421.779724,264.835449 419.497375,260.246002 421.681976,255.228928 
	C423.748016,255.334167 423.870331,257.425537 425.104553,258.888153 
	C426.083954,255.347610 424.207123,251.417542 427.382019,248.746674 
	C430.010864,250.025391 428.924530,252.318832 429.334412,254.519455 
z"/>
<path fill="#000000" opacity="1.000000" stroke="none" 
	d="
M531.909668,124.166000 
	C530.789795,127.661079 528.866821,129.334167 525.436523,128.126663 
	C522.476807,127.084831 521.335266,124.743454 521.968262,121.812080 
	C522.558289,119.079880 524.564636,117.317177 527.372498,117.755394 
	C530.546692,118.250809 533.073486,119.838280 531.909668,124.166000 
z"/>
<path fill="#000000" opacity="1.000000" stroke="none" 
	d="
M441.845825,171.641556 
	C443.613281,171.886978 444.669617,172.628891 445.166107,173.964508 
	C446.063934,176.379654 445.905426,178.637894 443.295441,179.823334 
	C441.232758,180.760223 439.161896,180.155838 438.340271,178.012833 
	C437.184357,174.997971 437.840302,172.473175 441.845825,171.641556 
z"/>
<path fill="#000000" opacity="1.000000" stroke="none" 
	d="
M429.859375,140.308289 
	C432.815674,141.229004 433.898590,143.083862 433.120300,145.686584 
	C432.566040,147.540009 430.946838,148.062073 429.144287,147.617966 
	C427.044067,147.100540 426.294159,145.459320 426.365082,143.513336 
	C426.434143,141.618469 427.683228,140.608719 429.859375,140.308289 
z"/>
<path fill="#000000" opacity="1.000000" stroke="none" 
	d="
M634.353271,246.403534 
	C636.371582,248.333450 636.496887,250.155762 634.796204,251.871475 
	C633.474243,253.205109 631.842712,253.372253 630.256470,252.288513 
	C629.032349,251.452209 628.579224,250.136063 628.984863,248.768112 
	C629.733276,246.245193 631.500366,245.410934 634.353271,246.403534 
z"/>
<path fill="#000000" opacity="1.000000" stroke="none" 
	d="
M634.384277,129.204224 
	C634.192383,128.355042 634.049438,127.871849 634.056580,127.390884 
	C634.082947,125.618660 633.819458,123.549339 636.168762,123.063362 
	C637.860901,122.713333 638.341919,124.186646 638.599915,125.493279 
	C639.015930,127.600082 639.364136,129.928284 637.333374,131.296265 
	C635.886169,132.271118 635.057983,130.818832 634.384277,129.204224 
z"/>
<path fill="#000000" opacity="1.000000" stroke="none" 
	d="
M642.339844,132.272552 
	C644.665894,132.445908 647.687012,131.814682 647.101562,135.033524 
	C646.700562,137.238083 644.084595,137.070938 642.115845,136.720612 
	C641.013550,136.524490 639.768311,136.232025 639.578369,134.826950 
	C639.340820,133.069519 640.713623,132.721588 642.339844,132.272552 
z"/>
<path fill="#000000" opacity="1.000000" stroke="none" 
	d="
M638.104736,138.526306 
	C638.533936,139.618271 638.911255,140.398819 638.967102,141.201706 
	C639.104370,143.178177 639.392090,145.612320 636.884644,146.113876 
	C634.426025,146.605682 634.477844,144.156403 634.517639,142.686905 
	C634.574341,140.587311 633.369812,137.080872 638.104736,138.526306 
z"/>
<path fill="#000000" opacity="1.000000" stroke="none" 
	d="
M630.770874,136.964600 
	C628.662537,137.058395 626.942505,136.983856 626.178162,135.118378 
	C625.830200,134.269073 626.356812,133.417023 627.195862,133.116806 
	C629.116577,132.429565 631.442139,131.933746 632.905945,133.323044 
	C635.166382,135.468475 632.907898,136.239288 630.770874,136.964600 
z"/>
<path fill="#000000" opacity="1.000000" stroke="none" 
	d="
M576.616455,175.848572 
	C577.890259,173.519135 579.557556,173.673691 581.122314,174.989166 
	C581.781921,175.543701 581.421570,176.602051 580.689514,177.120773 
	C579.037354,178.291367 577.637756,177.996506 576.616455,175.848572 
z"/>
<path fill="#000000" opacity="1.000000" stroke="none" 
	d="
M588.453003,299.752991 
	C583.251343,301.955017 578.927246,301.223755 575.656616,297.009705 
	C572.771973,293.292999 573.007507,289.196472 575.615356,285.457062 
	C578.258301,281.667358 582.135437,280.504547 586.567444,281.642853 
	C590.285034,282.597656 592.539551,285.165710 593.213318,288.898956 
	C594.012268,293.325348 593.010620,297.143005 588.453003,299.752991 
z"/>
<path fill="#000000" opacity="1.000000" stroke="none" 
	d="
M568.277954,290.733246 
	C569.380310,294.972931 564.886658,296.872559 565.297546,300.318939 
	C563.555542,301.042572 562.369934,300.394592 562.147827,299.241272 
	C561.645081,296.630798 560.195740,295.427582 557.755554,294.555756 
	C555.760864,293.843109 552.976624,284.530579 553.857971,282.527527 
	C554.334167,281.445190 554.760254,280.429138 554.663879,279.207672 
	C554.449585,276.490540 556.493225,275.888214 558.476440,275.538116 
	C560.634155,275.157257 561.354492,276.607056 562.408752,278.375793 
	C564.710205,282.236908 564.947937,287.032349 568.277954,290.733246 
z"/>
<path fill="#000000" opacity="1.000000" stroke="none" 
	d="
M533.807617,283.439606 
	C532.855408,281.511444 531.947937,279.973389 530.829895,278.078461 
	C533.614258,275.726715 537.698242,274.870789 539.314697,271.118805 
	C539.591553,270.476288 541.138550,270.409637 541.496887,271.167267 
	C543.207153,274.782776 547.143494,275.444733 550.172729,277.665344 
	C548.708008,280.598450 547.022339,283.250793 546.892334,286.491364 
	C546.827942,288.096436 545.576233,288.605225 544.041748,288.516357 
	C542.228455,288.411285 540.367981,288.118896 538.602905,288.392151 
	C534.837036,288.975189 533.269043,287.608917 533.807617,283.439606 
z"/>
<path fill="#000000" opacity="1.000000" stroke="none" 
	d="
M556.905640,315.906616 
	C554.556580,317.477234 552.918823,320.379181 549.824219,317.922333 
	C546.406250,315.208801 543.751343,308.333618 545.110046,305.557220 
	C545.960876,303.818573 547.824890,302.672333 549.124451,303.668884 
	C552.817810,306.501068 558.737305,300.678497 561.039734,306.607727 
	C562.451904,310.244354 559.771301,313.176086 556.905640,315.906616 
z"/>
<path fill="#000000" opacity="1.000000" stroke="none" 
	d="
M542.168701,298.012695 
	C541.128601,301.369141 540.457214,304.447449 538.275757,306.917206 
	C536.718506,308.680206 535.026062,310.006012 532.716309,308.807526 
	C530.327393,307.567932 530.475586,305.421387 531.392456,303.209106 
	C531.824341,302.166931 532.479370,301.101837 531.790649,300.090302 
	C530.166443,298.258667 528.612427,300.698059 526.801208,299.764313 
	C526.664246,297.246246 528.424438,296.396240 530.442200,296.330139 
	C534.913879,296.183594 535.006714,300.165100 535.981445,303.221466 
	C538.510193,302.030304 537.705139,300.460785 537.175110,298.921143 
	C536.446472,296.804413 537.369690,295.069763 539.245117,294.566711 
	C541.346802,294.002869 541.901978,295.917877 542.168701,298.012695 
z"/>
<path fill="#000000" opacity="1.000000" stroke="none" 
	d="
M517.108765,241.199127 
	C519.250793,240.141998 520.413574,236.018784 522.842957,238.770172 
	C524.727722,240.904800 521.921143,242.970093 520.282166,244.474625 
	C515.450195,248.910034 508.416016,248.302048 504.385315,243.169846 
	C503.401337,241.916962 501.928314,240.376541 503.549225,238.810898 
	C505.053223,237.358185 506.255096,238.966919 507.346405,239.899353 
	C510.205200,242.341934 513.190491,243.808792 517.108765,241.199127 
z"/>
<path fill="#000000" opacity="1.000000" stroke="none" 
	d="
M537.126343,228.840317 
	C537.771973,230.492889 538.017517,231.785431 536.538391,232.651016 
	C535.451050,233.287369 534.610107,232.646912 533.953674,231.882706 
	C531.611938,229.156845 529.425415,228.823807 527.187378,232.036194 
	C526.479370,233.052521 525.280273,233.601456 524.197876,232.612778 
	C523.247131,231.744324 523.415161,230.462738 523.860474,229.354095 
	C525.743652,224.666397 533.515747,222.223175 537.126343,228.840317 
z"/>
<path fill="#000000" opacity="1.000000" stroke="none" 
	d="
M499.005432,232.639145 
	C496.569366,229.812561 494.437408,229.569946 492.407166,232.594116 
	C491.596100,233.802277 490.587219,234.728104 489.174225,233.655777 
	C488.128174,232.861969 488.251526,231.565475 488.714355,230.454987 
	C489.886017,227.643860 491.920929,225.932648 495.064301,225.702240 
	C497.973389,225.488983 500.457031,226.492950 501.703705,229.072891 
	C502.660248,231.052353 503.787323,234.036789 499.005432,232.639145 
z"/>
</svg>